<svg width="64" height="64" viewBox="0 0 64 64" fill="none" xmlns="http://www.w3.org/2000/svg">
<path d="M60.3912 30.6725C57.74 18.6863 53.75 12.2888 47.8312 10.5413C46.5871 10.1763 45.2965 9.994 44 10C42.2862 10 40.7937 10.4175 39.215 10.86C37.3125 11.3938 35.1512 12 32 12C28.8487 12 26.6862 11.395 24.78 10.8613C23.2 10.4175 21.7087 10 20 10C18.6593 9.99536 17.3244 10.1771 16.0337 10.54C10.1462 12.28 6.15872 18.675 3.46872 30.665C0.576222 43.5675 1.99997 51.7138 7.46122 53.6038C8.20982 53.8676 8.99748 54.0037 9.79122 54.0063C13.5325 54.0063 16.5325 50.89 18.5825 48.3388C20.8987 45.4513 23.61 43.9863 32 43.9863C39.4937 43.9863 42.595 45.0025 45.2737 48.3388C46.9575 50.4363 48.5487 51.9038 50.1362 52.8275C52.2475 54.055 54.3575 54.3275 56.4062 53.6238C59.6337 52.5225 61.4837 49.6113 61.9062 44.9688C62.2275 41.4088 61.7325 36.7325 60.3912 30.6725ZM26 30H22V34C22 34.5304 21.7893 35.0391 21.4142 35.4142C21.0391 35.7893 20.5304 36 20 36C19.4695 36 18.9608 35.7893 18.5858 35.4142C18.2107 35.0391 18 34.5304 18 34V30H14C13.4695 30 12.9608 29.7893 12.5858 29.4142C12.2107 29.0391 12 28.5304 12 28C12 27.4696 12.2107 26.9609 12.5858 26.5858C12.9608 26.2107 13.4695 26 14 26H18V22C18 21.4696 18.2107 20.9609 18.5858 20.5858C18.9608 20.2107 19.4695 20 20 20C20.5304 20 21.0391 20.2107 21.4142 20.5858C21.7893 20.9609 22 21.4696 22 22V26H26C26.5304 26 27.0391 26.2107 27.4142 26.5858C27.7893 26.9609 28 27.4696 28 28C28 28.5304 27.7893 29.0391 27.4142 29.4142C27.0391 29.7893 26.5304 30 26 30ZM36.5 30.5C36.0055 30.5 35.5222 30.3534 35.111 30.0787C34.6999 29.804 34.3795 29.4135 34.1903 28.9567C34.0011 28.4999 33.9515 27.9972 34.048 27.5123C34.1445 27.0273 34.3826 26.5819 34.7322 26.2322C35.0818 25.8826 35.5273 25.6445 36.0122 25.548C36.4972 25.4516 36.9999 25.5011 37.4567 25.6903C37.9135 25.8795 38.3039 26.2 38.5786 26.6111C38.8534 27.0222 39 27.5056 39 28C39 28.663 38.7366 29.2989 38.2677 29.7678C37.7989 30.2366 37.163 30.5 36.5 30.5ZM42 36C41.5053 36 41.0217 35.8532 40.6104 35.5782C40.1991 35.3033 39.8787 34.9124 39.6897 34.4553C39.5006 33.9981 39.4515 33.4951 39.5485 33.01C39.6454 32.5249 39.8842 32.0794 40.2344 31.73C40.5847 31.3806 41.0307 31.143 41.5161 31.0473C42.0015 30.9515 42.5043 31.0019 42.961 31.1921C43.4177 31.3823 43.8077 31.7037 44.0817 32.1156C44.3556 32.5276 44.5012 33.0115 44.5 33.5063C44.4983 34.1682 44.2342 34.8025 43.7655 35.27C43.2969 35.7375 42.6619 36 42 36ZM42 25C41.5055 25 41.0222 24.8534 40.611 24.5787C40.1999 24.304 39.8795 23.9135 39.6903 23.4567C39.5011 22.9999 39.4515 22.4972 39.548 22.0123C39.6445 21.5273 39.8826 21.0819 40.2322 20.7322C40.5818 20.3826 41.0273 20.1445 41.5122 20.048C41.9972 19.9516 42.4999 20.0011 42.9567 20.1903C43.4135 20.3795 43.8039 20.7 44.0786 21.1111C44.3534 21.5222 44.5 22.0056 44.5 22.5C44.5 23.163 44.2366 23.7989 43.7677 24.2678C43.2989 24.7366 42.663 25 42 25ZM47.5 30.5C47.0055 30.5 46.5222 30.3534 46.111 30.0787C45.6999 29.804 45.3795 29.4135 45.1903 28.9567C45.0011 28.4999 44.9515 27.9972 45.048 27.5123C45.1445 27.0273 45.3826 26.5819 45.7322 26.2322C46.0818 25.8826 46.5273 25.6445 47.0122 25.548C47.4972 25.4516 47.9999 25.5011 48.4567 25.6903C48.9135 25.8795 49.3039 26.2 49.5786 26.6111C49.8534 27.0222 50 27.5056 50 28C50 28.663 49.7366 29.2989 49.2677 29.7678C48.7989 30.2366 48.163 30.5 47.5 30.5Z" fill="white"/>
</svg>
