<svg width="14" height="14" viewBox="0 0 14 14" fill="none" xmlns="http://www.w3.org/2000/svg">
<path fill-rule="evenodd" clip-rule="evenodd" d="M13.4 6.99123C13.4 7.42404 13.3559 7.85626 13.2694 8.27758C13.185 8.68888 13.06 9.09268 12.8962 9.4787C12.7362 9.85789 12.5378 10.2233 12.3059 10.5641C12.0775 10.9027 11.8143 11.2204 11.5252 11.5099C11.2355 11.7983 10.9168 12.0607 10.5783 12.2901C10.2364 12.5204 9.87049 12.7186 9.49108 12.8793C9.10451 13.0422 8.69977 13.167 8.28882 13.2513C7.86695 13.338 7.43316 13.3823 6.99971 13.3823C6.56594 13.3823 6.13217 13.338 5.7109 13.2513C5.29932 13.167 4.89461 13.0422 4.50834 12.8793C4.12895 12.7186 3.76267 12.5204 3.42078 12.2901C3.08233 12.0607 2.76356 11.7983 2.47448 11.5099C2.1851 11.2204 1.92195 10.9027 1.69319 10.5641C1.46255 10.2233 1.26378 9.85787 1.10316 9.4787C0.939379 9.09268 0.814078 8.68886 0.729383 8.27758C0.643761 7.85626 0.599998 7.42404 0.599998 6.99123C0.599998 6.55808 0.643736 6.12494 0.729408 5.70455C0.814103 5.29324 0.939404 4.88882 1.10318 4.50342C1.26381 4.12396 1.46258 3.75823 1.69322 3.41744C1.92198 3.07854 2.18513 2.76147 2.47451 2.47155C2.76359 2.18319 3.08235 1.92139 3.42081 1.69234C3.76269 1.46108 4.12898 1.26295 4.50836 1.10191C4.89464 0.938663 5.29932 0.813543 5.71093 0.729921C6.1322 0.643797 6.56597 0.600098 6.99974 0.600098C7.43318 0.600098 7.86695 0.643797 8.28885 0.729921C8.6998 0.813568 9.10451 0.938689 9.49111 1.10191C9.87049 1.26292 10.2365 1.46108 10.5783 1.69234C10.9168 1.92139 11.2356 2.18319 11.5253 2.47155C11.8143 2.76147 12.0775 3.07854 12.3059 3.41744C12.5378 3.75823 12.7362 4.12398 12.8962 4.50342C13.06 4.88882 13.185 5.29324 13.2694 5.70455C13.3559 6.12494 13.4 6.55808 13.4 6.99123ZM4.66769 2.05463C3.14353 2.77334 2.00597 4.17575 1.65126 5.86591C1.79535 5.86716 4.07297 5.89587 6.69716 5.19963C5.75119 3.52133 4.74051 2.15171 4.66769 2.05463ZM7.14999 6.04006C4.33579 6.88136 1.63533 6.82082 1.53846 6.8171C1.53688 6.87575 1.53407 6.93254 1.53407 6.99122C1.53407 8.39331 2.06379 9.67153 2.93446 10.638C2.93258 10.6352 4.4283 7.98546 7.37782 7.03304C7.44906 7.00933 7.52158 6.98809 7.59345 6.96751C7.45628 6.65733 7.30655 6.34651 7.14999 6.04006ZM10.6093 2.89504C9.647 2.04776 8.38352 1.53382 6.99969 1.53382C6.5556 1.53382 6.12464 1.5875 5.71181 1.68673C5.79367 1.79659 6.82031 3.15656 7.75503 4.8704C9.81734 4.09837 10.5958 2.915 10.6093 2.89504ZM7.96602 7.87187C7.95384 7.8759 7.94167 7.87937 7.92977 7.88373C4.70497 9.00632 3.65187 11.2687 3.64047 11.2934C4.56835 12.0139 5.73216 12.4486 6.99973 12.4486C7.75662 12.4486 8.47759 12.2947 9.13356 12.0161C9.05262 11.5393 8.73511 9.86785 7.96602 7.87187ZM10.0539 11.5174C11.2812 10.6905 12.1528 9.37729 12.3959 7.85624C12.2834 7.82004 10.7542 7.33664 8.99008 7.61908C9.70699 9.58636 9.99828 11.1885 10.0539 11.5174ZM8.17572 5.68366C8.30258 5.94393 8.42543 6.20883 8.53885 6.47505C8.57918 6.57056 8.61856 6.66418 8.65699 6.75779C10.5346 6.52185 12.3844 6.9188 12.4634 6.93501C12.4509 5.64121 11.9875 4.45379 11.2206 3.52416C11.2103 3.5388 10.3337 4.80361 8.17572 5.68366Z" fill="white"/>
</svg>
