<svg width="64" height="64" viewBox="0 0 64 64" fill="none" xmlns="http://www.w3.org/2000/svg">
<path d="M5.33337 53.3333V10.6667H10.6667L16 21.3333H24L18.6667 10.6667H24L29.3334 21.3333H37.3334L32 10.6667H37.3334L42.6667 21.3333H50.6667L45.3334 10.6667H53.3334C54.8 10.6667 56.056 11.1893 57.1014 12.2347C58.1467 13.28 58.6685 14.5351 58.6667 16V18.9333L32 45.6V53.3333H5.33337ZM37.3334 56V47.8L54.8667 30.3333L63.0667 38.4667L45.5334 56H37.3334ZM54.8667 41.0667L57.3334 38.4667L54.8667 36L52.3334 38.5333L54.8667 41.0667Z" fill="white"/>
</svg>
