<svg width="64" height="65" viewBox="0 0 64 65" fill="none" xmlns="http://www.w3.org/2000/svg">
<path d="M53.3333 8.5C54.7478 8.5 56.1044 9.0619 57.1045 10.0621C58.1047 11.0623 58.6666 12.4188 58.6666 13.8333V51.1667C58.6666 52.5812 58.1047 53.9377 57.1045 54.9379C56.1044 55.9381 54.7478 56.5 53.3333 56.5H10.6666C9.25216 56.5 7.8956 55.9381 6.89541 54.9379C5.89522 53.9377 5.33331 52.5812 5.33331 51.1667V13.8333C5.33331 12.4188 5.89522 11.0623 6.89541 10.0621C7.8956 9.0619 9.25216 8.5 10.6666 8.5H53.3333ZM42.6666 13.8333H21.3333V51.1667H42.6666V13.8333ZM53.3333 45.8333H48V51.1667H53.3333V45.8333ZM16 45.8333H10.6666V51.1667H16V45.8333ZM53.3333 35.1667H48V40.5H53.3333V35.1667ZM16 35.1667H10.6666V40.5H16V35.1667ZM53.3333 24.5H48V29.8333H53.3333V24.5ZM16 24.5H10.6666V29.8333H16V24.5ZM53.3333 13.8333H48V19.1667H53.3333V13.8333ZM16 13.8333H10.6666V19.1667H16V13.8333Z" fill="white"/>
</svg>
