<svg width="28" height="29" viewBox="0 0 28 29" fill="none" xmlns="http://www.w3.org/2000/svg">
<path d="M25.5714 11.5938H16.8929V2.875C16.8929 1.80514 16.0292 0.9375 14.9643 0.9375H13.0357C11.9708 0.9375 11.1071 1.80514 11.1071 2.875V11.5938H2.42857C1.36364 11.5938 0.5 12.4614 0.5 13.5312V15.4688C0.5 16.5386 1.36364 17.4062 2.42857 17.4062H11.1071V26.125C11.1071 27.1949 11.9708 28.0625 13.0357 28.0625H14.9643C16.0292 28.0625 16.8929 27.1949 16.8929 26.125V17.4062H25.5714C26.6364 17.4062 27.5 16.5386 27.5 15.4688V13.5312C27.5 12.4614 26.6364 11.5938 25.5714 11.5938Z" fill="white"/>
</svg>
