<svg width="64" height="65" viewBox="0 0 64 65" fill="none" xmlns="http://www.w3.org/2000/svg">
<path d="M54.6666 29.8333H50.6666V19.1666C50.6666 17.7521 50.1047 16.3956 49.1045 15.3954C48.1044 14.3952 46.7478 13.8333 45.3333 13.8333H34.6666V9.83329C34.6666 8.06518 33.9643 6.36949 32.714 5.11925C31.4638 3.869 29.7681 3.16663 28 3.16663C26.2319 3.16663 24.5362 3.869 23.2859 5.11925C22.0357 6.36949 21.3333 8.06518 21.3333 9.83329V13.8333H10.6666C9.25216 13.8333 7.8956 14.3952 6.89541 15.3954C5.89522 16.3956 5.33331 17.7521 5.33331 19.1666V29.3H9.33331C13.3333 29.3 16.5333 32.5 16.5333 36.5C16.5333 40.5 13.3333 43.7 9.33331 43.7H5.33331V53.8333C5.33331 55.2478 5.89522 56.6043 6.89541 57.6045C7.8956 58.6047 9.25216 59.1666 10.6666 59.1666H20.8V55.1666C20.8 51.1666 24 47.9666 28 47.9666C32 47.9666 35.2 51.1666 35.2 55.1666V59.1666H45.3333C46.7478 59.1666 48.1044 58.6047 49.1045 57.6045C50.1047 56.6043 50.6666 55.2478 50.6666 53.8333V43.1666H54.6666C56.4348 43.1666 58.1305 42.4642 59.3807 41.214C60.6309 39.9638 61.3333 38.2681 61.3333 36.5C61.3333 34.7318 60.6309 33.0362 59.3807 31.7859C58.1305 30.5357 56.4348 29.8333 54.6666 29.8333Z" fill="white"/>
</svg>
