<svg width="64" height="64" viewBox="0 0 64 64" fill="none" xmlns="http://www.w3.org/2000/svg">
<path d="M32 6.40002C25.2105 6.40002 18.699 9.09716 13.8981 13.8981C9.09716 18.699 6.40002 25.2105 6.40002 32C6.40002 38.7896 9.09716 45.301 13.8981 50.102C18.699 54.9029 25.2105 57.6 32 57.6C38.7896 57.6 45.301 54.9029 50.102 50.102C54.9029 45.301 57.6 38.7896 57.6 32C57.6 25.2105 54.9029 18.699 50.102 13.8981C45.301 9.09716 38.7896 6.40002 32 6.40002ZM20.7808 25.84C20.7564 26.0537 20.6891 26.2603 20.5831 26.4474C20.477 26.6345 20.3343 26.7983 20.1635 26.929C19.9927 27.0597 19.7973 27.1546 19.5889 27.208C19.3806 27.2615 19.1637 27.2724 18.951 27.2401C18.7384 27.2079 18.5344 27.133 18.3514 27.0202C18.1683 26.9073 18.0099 26.7586 17.8856 26.5831C17.7612 26.4076 17.6736 26.2089 17.6278 25.9987C17.5821 25.7885 17.5791 25.5713 17.6192 25.36C18.0256 22.688 20.4544 20.8 23.1936 20.8C25.9328 20.8 28.3616 22.688 28.768 25.36C28.8081 25.5713 28.8052 25.7885 28.7594 25.9987C28.7137 26.2089 28.626 26.4076 28.5017 26.5831C28.3774 26.7586 28.2189 26.9073 28.0359 27.0202C27.8528 27.133 27.6489 27.2079 27.4362 27.2401C27.2236 27.2724 27.0066 27.2615 26.7983 27.208C26.59 27.1546 26.3946 27.0597 26.2238 26.929C26.053 26.7983 25.9103 26.6345 25.8042 26.4474C25.6981 26.2603 25.6309 26.0537 25.6064 25.84C25.4624 24.896 24.5216 24 23.1936 24C21.8656 24 20.9248 24.896 20.7808 25.84ZM38.3808 25.84C38.3036 26.2469 38.0717 26.608 37.7337 26.8474C37.3958 27.0868 36.9782 27.1858 36.5687 27.1236C36.1593 27.0615 35.7899 26.843 35.5382 26.5141C35.2865 26.1852 35.1722 25.7715 35.2192 25.36C35.6256 22.688 38.0544 20.8 40.7936 20.8C43.5328 20.8 45.9616 22.688 46.368 25.36C46.4151 25.7715 46.3007 26.1852 46.0491 26.5141C45.7974 26.843 45.428 27.0615 45.0185 27.1236C44.6091 27.1858 44.1915 27.0868 43.8535 26.8474C43.5156 26.608 43.2836 26.2469 43.2064 25.84C43.0592 24.896 42.1216 24 40.7936 24C39.4656 24 38.528 24.896 38.3808 25.84ZM17.584 33.6H46.384C45.696 40.64 40.2112 46.4 31.984 46.4C23.76 46.4 18.272 40.64 17.584 33.6Z" fill="white"/>
</svg>
