<svg width="64" height="64" viewBox="0 0 64 64" fill="none" xmlns="http://www.w3.org/2000/svg">
<g clip-path="url(#clip0_1305_440)">
<path d="M54.4 32.864V15.968C54.4 15.1193 54.0629 14.3054 53.4627 13.7053C52.8626 13.1051 52.0487 12.768 51.2 12.768C50.3513 12.768 49.5374 13.1051 48.9373 13.7053C48.3371 14.3054 48 15.1193 48 15.968V48C48 52.2435 46.3143 56.3131 43.3137 59.3137C40.3131 62.3143 36.2435 64 32 64C27.7565 64 23.6869 62.3143 20.6863 59.3137C17.6857 56.3131 16 52.2435 16 48V44.544C11.524 43.7874 7.46082 41.4694 4.53171 38.0013C1.6026 34.5332 -0.00296171 30.1395 4.1015e-06 25.6V6.4C4.1015e-06 2.88 2.88 0 6.4 0H9.6C10.4487 0 11.2626 0.337142 11.8627 0.937258C12.4629 1.53737 12.8 2.35131 12.8 3.2C12.8 4.04869 12.4629 4.86263 11.8627 5.46274C11.2626 6.06286 10.4487 6.4 9.6 6.4H6.4V25.6C6.4 28.9948 7.74857 32.2505 10.149 34.651C12.5495 37.0514 15.8052 38.4 19.2 38.4C22.5948 38.4 25.8505 37.0514 28.251 34.651C30.6514 32.2505 32 28.9948 32 25.6V6.4H28.8C27.9513 6.4 27.1374 6.06286 26.5373 5.46274C25.9371 4.86263 25.6 4.04869 25.6 3.2C25.6 2.35131 25.9371 1.53737 26.5373 0.937258C27.1374 0.337142 27.9513 0 28.8 0L32 0C33.6974 0 35.3253 0.674284 36.5255 1.87452C37.7257 3.07475 38.4 4.70261 38.4 6.4V25.6C38.403 30.1395 36.7974 34.5332 33.8683 38.0013C30.9392 41.4694 26.876 43.7874 22.4 44.544V48C22.4 50.5461 23.4114 52.9879 25.2118 54.7882C27.0121 56.5886 29.4539 57.6 32 57.6C34.5461 57.6 36.9879 56.5886 38.7882 54.7882C40.5886 52.9879 41.6 50.5461 41.6 48V16C41.6 13.4539 42.6114 11.0121 44.4118 9.21178C46.2121 7.41143 48.6539 6.4 51.2 6.4C53.7461 6.4 56.1879 7.41143 57.9882 9.21178C59.7886 11.0121 60.8 13.4539 60.8 16V32.864C62.0201 33.5684 62.9737 34.6558 63.5128 35.9574C64.052 37.259 64.1466 38.7022 63.7819 40.063C63.4173 41.4239 62.6138 42.6264 61.4961 43.484C60.3784 44.3417 59.0089 44.8066 57.6 44.8066C56.1911 44.8066 54.8217 44.3417 53.7039 43.484C52.5862 42.6264 51.7827 41.4239 51.4181 40.063C51.0534 38.7022 51.148 37.259 51.6872 35.9574C52.2263 34.6558 53.1799 33.5684 54.4 32.864Z" fill="white"/>
</g>
<defs>
<clipPath id="clip0_1305_440">
<rect width="64" height="64" fill="white"/>
</clipPath>
</defs>
</svg>
