<svg width="196" height="37" viewBox="0 0 196 37" fill="none" xmlns="http://www.w3.org/2000/svg">
<path d="M19.6424 35.0293C18.3263 35.5877 16.9116 36.0639 15.3981 36.4581C13.9175 36.8194 12.4534 37 11.0057 37C9.95282 37 8.94931 36.8686 7.99515 36.6059C7.041 36.3431 6.202 35.9161 5.47816 35.3249C4.78722 34.7337 4.22789 33.9618 3.80016 33.0093C3.40534 32.0568 3.20793 30.8744 3.20793 29.462V17.5885H0V10.5433H3.20793V2.41411H12.585V10.5433H17.6683V17.5885H12.585V26.1611C12.585 27.0151 12.7659 27.6227 13.1278 27.984C13.4898 28.3125 13.9833 28.4767 14.6084 28.4767C15.0691 28.4767 15.5955 28.411 16.1877 28.2796C16.78 28.1154 17.3722 27.9019 17.9644 27.6391L19.6424 35.0293Z" fill="white"/>
<path d="M22.3001 36.4581V10.5433H31.6772V36.4581H22.3001ZM22.3001 8.3755V0.492676H31.6772V8.3755H22.3001Z" fill="white"/>
<path d="M78.2728 36.4581H68.8957V21.8748C68.8957 20.5939 68.6325 19.6742 68.1061 19.1158C67.6126 18.5246 67.0039 18.229 66.28 18.229C65.5233 18.229 64.7172 18.5739 63.8617 19.2636C63.0392 19.9534 62.4305 20.8402 62.0357 21.9241V36.4581H52.6587V21.8748C52.6587 20.5939 52.3955 19.6742 51.869 19.1158C51.3755 18.5246 50.7668 18.229 50.043 18.229C49.2862 18.229 48.4801 18.5739 47.6247 19.2636C46.8021 19.9534 46.1934 20.8402 45.7986 21.9241V36.4581H36.4216V10.5433H44.8609V14.3862C45.7822 12.9738 47.0489 11.9063 48.6611 11.1838C50.2733 10.4283 52.1816 10.0506 54.386 10.0506C55.4389 10.0506 56.3601 10.182 57.1498 10.4447C57.9394 10.6747 58.6139 11.0031 59.1732 11.4301C59.7655 11.8571 60.2261 12.3333 60.5551 12.8589C60.917 13.3844 61.1967 13.9427 61.3941 14.534C62.3154 13.1216 63.5656 12.0213 65.1449 11.233C66.7571 10.4447 68.5832 10.0506 70.6231 10.0506C72.334 10.0506 73.6829 10.3791 74.67 11.036C75.69 11.66 76.4632 12.4483 76.9896 13.4008C77.516 14.3533 77.8615 15.3715 78.026 16.4554C78.1905 17.5393 78.2728 18.5246 78.2728 19.4115V36.4581Z" fill="white"/>
<path d="M81.3103 18.6724C81.3103 16.5375 81.7051 14.4354 82.4947 12.3662C83.3173 10.2969 84.5017 8.44119 86.0481 6.79893C87.5945 5.15668 89.4699 3.82645 91.6744 2.80825C93.8788 1.79006 96.3958 1.28096 99.2253 1.28096C102.614 1.28096 105.542 1.98713 108.01 3.39947C110.511 4.77896 112.37 6.61829 113.587 8.91744L106.233 14.1398C105.904 13.2858 105.46 12.5797 104.901 12.0213C104.374 11.4629 103.782 11.0195 103.124 10.6911C102.466 10.3626 101.775 10.1327 101.051 10.0013C100.36 9.86995 99.686 9.80426 99.0279 9.80426C97.646 9.80426 96.4451 10.0834 95.4252 10.6418C94.4381 11.1673 93.6156 11.8735 92.9575 12.7603C92.3324 13.6143 91.8553 14.5996 91.5263 15.7164C91.2302 16.8003 91.0821 17.8842 91.0821 18.968C91.0821 20.1833 91.2631 21.3493 91.625 22.466C91.9869 23.5828 92.5134 24.5681 93.2043 25.4221C93.8952 26.2761 94.7342 26.9658 95.7213 27.4913C96.7412 27.984 97.8764 28.2304 99.1266 28.2304C99.7847 28.2304 100.459 28.1647 101.15 28.0333C101.841 27.8691 102.499 27.6227 103.124 27.2943C103.782 26.933 104.358 26.4896 104.852 25.964C105.378 25.4057 105.789 24.7324 106.085 23.9441L113.932 28.6245C113.406 29.9055 112.6 31.055 111.514 32.0732C110.461 33.0914 109.244 33.9454 107.862 34.6352C106.513 35.3249 105.049 35.8504 103.47 36.2117C101.923 36.573 100.41 36.7537 98.9292 36.7537C96.33 36.7537 93.9446 36.2446 91.7731 35.2264C89.6344 34.1753 87.7755 32.7958 86.1962 31.0879C84.6498 29.3799 83.4489 27.4421 82.5934 25.2743C81.738 23.1065 81.3103 20.9059 81.3103 18.6724Z" fill="white"/>
<path d="M129.258 36.9507C126.922 36.9507 124.865 36.5894 123.089 35.8668C121.345 35.1114 119.864 34.1261 118.647 32.9108C117.462 31.6627 116.558 30.2339 115.932 28.6245C115.34 26.9822 115.044 25.2743 115.044 23.5007C115.044 21.727 115.34 20.0355 115.932 18.4261C116.558 16.7838 117.462 15.3551 118.647 14.1398C119.864 12.8917 121.345 11.9063 123.089 11.1838C124.865 10.4283 126.922 10.0506 129.258 10.0506C131.561 10.0506 133.601 10.4283 135.377 11.1838C137.154 11.9063 138.635 12.8917 139.819 14.1398C141.037 15.3551 141.941 16.7838 142.534 18.4261C143.159 20.0355 143.471 21.727 143.471 23.5007C143.471 25.2743 143.159 26.9822 142.534 28.6245C141.941 30.2339 141.037 31.6627 139.819 32.9108C138.635 34.1261 137.154 35.1114 135.377 35.8668C133.601 36.5894 131.561 36.9507 129.258 36.9507ZM124.668 23.5007C124.668 25.2415 125.096 26.6045 125.951 27.5899C126.806 28.5752 127.909 29.0679 129.258 29.0679C130.607 29.0679 131.709 28.5752 132.564 27.5899C133.42 26.6045 133.847 25.2415 133.847 23.5007C133.847 21.7599 133.42 20.3968 132.564 19.4115C131.709 18.4261 130.607 17.9334 129.258 17.9334C127.909 17.9334 126.806 18.4261 125.951 19.4115C125.096 20.3968 124.668 21.7599 124.668 23.5007Z" fill="white"/>
<path d="M172.898 36.4581H163.521V21.8748C163.521 20.5939 163.225 19.6742 162.633 19.1158C162.074 18.5246 161.416 18.229 160.659 18.229C159.869 18.229 159.03 18.5739 158.142 19.2636C157.253 19.9534 156.595 20.8402 156.168 21.9241V36.4581H146.791V10.5433H155.23V14.3862C156.151 12.9738 157.434 11.9063 159.079 11.1838C160.757 10.4283 162.732 10.0506 165.002 10.0506C166.779 10.0506 168.177 10.3791 169.197 11.036C170.25 11.66 171.039 12.4483 171.566 13.4008C172.125 14.3533 172.487 15.3715 172.651 16.4554C172.816 17.5393 172.898 18.5246 172.898 19.4115V36.4581Z" fill="white"/>
<path d="M179.269 36.4581V20.5939H176.061V13.5486H179.269V10.7403C179.269 9.13094 179.5 7.66933 179.96 6.35553C180.421 5.00888 181.063 3.87572 181.885 2.95606C182.708 2.00355 183.695 1.28096 184.846 0.788281C186.031 0.26276 187.347 0 188.794 0C190.966 0 193.368 0.492676 196 1.47803L194.421 8.57257C193.861 8.3755 193.253 8.21127 192.595 8.07989C191.97 7.94851 191.41 7.88282 190.917 7.88282C189.403 7.88282 188.646 8.72037 188.646 10.3955V13.5486H194.322V20.5939H188.646V36.4581H179.269Z" fill="white"/>
</svg>
