<svg width="21" height="12" viewBox="0 0 21 12" fill="none" xmlns="http://www.w3.org/2000/svg">
<path d="M18.5658 4.56948L19.1259 4.63738V4.07311V2.27475V1.86485L18.724 1.78446C18.4258 1.72481 18.1542 1.6773 17.9099 1.6424L17.9099 1.64232L17.9012 1.64124C17.1496 1.54729 16.4211 1.5 15.7161 1.5H15.4039H15.3794V1.48799L15.2112 1.5H14.9039V1.52195L14.8437 1.52625C13.9814 1.58784 13.2552 1.79847 12.754 2.23371C12.1254 2.77473 11.8691 3.61159 11.8691 4.61012C11.8691 5.06006 11.8949 5.4557 11.9509 5.79132C12.0099 6.14564 12.1267 6.46908 12.3143 6.74692C12.7496 7.41806 13.5408 7.74715 14.5094 7.85429L16.0427 8.04128L16.0427 8.04128L16.0448 8.04153C16.0511 8.04226 16.0571 8.043 16.0629 8.04375C16.0644 8.07551 16.0653 8.11305 16.0653 8.1569V8.33172L15.9539 8.35138C15.8631 8.3674 15.6125 8.38124 15.1541 8.38124C14.9999 8.38124 14.728 8.37342 14.3317 8.35694C13.7037 8.3156 13.1469 8.27433 12.6611 8.23316L12.1189 8.18721V8.73138V10.5547V10.9677L12.5245 11.0457C12.7639 11.0918 13.1023 11.1351 13.5301 11.1771C14.2654 11.2539 15.0567 11.292 15.9034 11.292H16.0408H16.0653V11.3117L16.3811 11.292H16.5408V11.282L16.5965 11.2785C17.0214 11.252 17.4042 11.1936 17.7392 11.0979L17.7393 11.098L17.748 11.0953C18.111 10.9844 18.4325 10.8084 18.7012 10.5614C19.3231 9.99437 19.563 9.07602 19.563 7.96957C19.563 6.93922 19.3761 6.07489 18.8622 5.53818L18.8623 5.5381L18.8546 5.53041C18.6383 5.3141 18.3787 5.15793 18.0847 5.05994C17.8201 4.97173 17.4957 4.90398 17.1215 4.85175L17.1215 4.85169L17.1135 4.85071L15.3901 4.6384L15.381 4.63728C15.3799 4.6069 15.3794 4.57294 15.3794 4.53519V4.43825L15.4351 4.43476C15.6899 4.41884 15.9625 4.41076 16.2531 4.41076C16.4739 4.41076 16.7705 4.41862 17.1454 4.43483C17.8312 4.49271 18.3024 4.53756 18.5658 4.56948Z" fill="#CFEEFF" stroke="black"/>
<path d="M4.73501 1.59985H4.36945L4.25857 1.94819L1.52356 10.5404L1.31612 11.192H2H4.49773H4.87777L4.97949 10.8259L5.301 9.66842H5.45935H7.16823L7.50144 10.8299L7.60533 11.192H7.98206H10.5297H11.2136L11.0062 10.5404L8.27117 1.94819L8.16029 1.59985H7.79473H5.50931H5.32352H4.94732H4.846H4.73501ZM6.11301 6.74517L6.21475 6.37889L6.31966 6.74517H6.11301Z" fill="#CFEEFF" stroke="black"/>
</svg>
