<svg xmlns="http://www.w3.org/2000/svg"><symbol id="icon-arrow" viewBox="0 0 9 8"><path d="m4.476 1.129 3.395 3.064-3.395 3.065M7.4 4.193H.516" stroke-linecap="round" stroke-linejoin="round"/></symbol><symbol id="icon-baleine" viewBox="0 0 100 75"><path d="M100 3.714a2.86 2.86 0 0 0-1.587-2.578 2.933 2.933 0 0 0-3.09.308 13.56 13.56 0 0 1-8.656 2.723A10.965 10.965 0 0 0 80 5.999a10.965 10.965 0 0 0-6.668-1.832 13.568 13.568 0 0 1-8.675-2.73 2.914 2.914 0 0 0-3.07-.294A2.85 2.85 0 0 0 60 3.713v2.118c.008 6.441 5.227 11.66 11.668 11.668h3.14c-1.273 11.035-9.362 15-29.808 15H4.862a4.892 4.892 0 0 0-3.617 1.61 4.81 4.81 0 0 0-1.223 3.69 36.069 36.069 0 0 0 2.645 10.427 36.748 36.748 0 0 0 34 22.605h4.804a27.75 27.75 0 0 0 6.153 3.156c.335.118.687.18 1.042.18a3.013 3.013 0 0 0 2.274-1.059 3.01 3.01 0 0 0 .687-2.414c20.88-1.777 32.961-21.004 33.36-53.195h3.343c6.442-.008 11.66-5.226 11.668-11.668L100 3.714ZM8.303 51.854a80.557 80.557 0 0 0 22.746 3.11c.762 0 1.574-.039 2.363-.058a8.53 8.53 0 0 0-.081 1.093 16.797 16.797 0 0 0 4.335 11.5h-1A33.426 33.426 0 0 1 8.304 51.855ZM36.667 56a5.18 5.18 0 0 1 5.735-5.137 5.417 5.417 0 0 1 4.644 5.47c.008 4.8.406 9.59 1.191 14.323-4.55-1.75-11.57-5.879-11.57-14.656ZM51.12 67.374h-.004a86.52 86.52 0 0 1-.734-11.059 9.227 9.227 0 0 0-.465-2.781A39.298 39.298 0 0 0 80.78 30.237c-2.195 16.957-9.3 35.57-29.664 37.141l.004-.004ZM96.667 5.831a8.349 8.349 0 0 1-8.336 8.336h-5a1.65 1.65 0 0 0-1.636 1.516h-.024c-.117 1.277-3.234 30.94-33.469 34.738a8.308 8.308 0 0 0-5.465-2.875 8.567 8.567 0 0 0-6.601 2.168 8.37 8.37 0 0 0-1.528 1.851A75.091 75.091 0 0 1 6.043 47.6c-.101-.226-.214-.44-.308-.668a32.61 32.61 0 0 1-2.395-9.468 1.46 1.46 0 0 1 .375-1.121 1.549 1.549 0 0 1 1.149-.512H45c19.926 0 32.445-3.332 33.28-19.918v.004a1.673 1.673 0 0 0-1.668-1.754h-4.944a8.343 8.343 0 0 1-8.336-8.332V4.6a16.987 16.987 0 0 0 10 2.898 6.616 6.616 0 0 1 5.386 1.851 1.726 1.726 0 0 0 2.563 0A6.616 6.616 0 0 1 86.667 7.5c3.555.11 7.051-.906 10-2.899v1.231Z"/><path d="M28.331 39.167a5 5 0 0 0-3.535 8.535 5.001 5.001 0 0 0 8.535-3.535 5 5 0 0 0-5-5Zm0 6.664a1.67 1.67 0 0 1-1.539-1.028 1.668 1.668 0 0 1 2.18-2.18 1.674 1.674 0 0 1 1.027 1.544 1.67 1.67 0 0 1-1.668 1.664Z"/></symbol><symbol id="icon-check" viewBox="0 0 21 15"><path d="M20.56.44a1.502 1.502 0 0 1 0 2.122L8.563 14.561a1.502 1.502 0 0 1-2.123 0l-6-6a1.502 1.502 0 0 1 2.124-2.123l4.94 4.936L18.443.439a1.502 1.502 0 0 1 2.122 0h-.004Z"/></symbol><symbol id="icon-chevron-down" viewBox="0 0 22 22"><path d="M11.971 17.471a1.377 1.377 0 0 1-1.946 0l-8.25-8.25A1.377 1.377 0 0 1 3.72 7.275L11 14.553l7.278-7.274a1.377 1.377 0 0 1 1.947 1.946l-8.25 8.25-.005-.004Z"/></symbol><symbol id="icon-chevron-right" viewBox="0 0 24 25"><path fill-rule="evenodd" clip-rule="evenodd" d="M7.293 4.793a1 1 0 0 1 1.414 0l7 7a1 1 0 0 1 0 1.414l-7 7a1 1 0 0 1-1.414-1.414l6.293-6.293-6.293-6.293a1 1 0 0 1 0-1.414Z"/></symbol><symbol id="icon-facebook" viewBox="0 0 20 19"><path fill-rule="evenodd" clip-rule="evenodd" d="M19.783 9.619c0-5.128-4.317-9.285-9.642-9.285C4.817.334.5 4.491.5 9.62c0 4.633 3.525 8.474 8.135 9.172v-6.488H6.186V9.62h2.449V7.573c0-2.326 1.44-3.613 3.642-3.613 1.055 0 2.158.182 2.158.182v2.285H13.22c-1.197 0-1.571.715-1.571 1.45V9.62h2.673l-.427 2.684h-2.246v6.488c4.61-.696 8.135-4.537 8.135-9.172Z"/></symbol><symbol id="icon-insta" viewBox="0 0 20 19"><path d="M14.159 1.881a4.109 4.109 0 0 1 2.837 1.137 3.81 3.81 0 0 1 1.18 2.732v7.737a3.81 3.81 0 0 1-1.18 2.732 4.109 4.109 0 0 1-2.837 1.137H6.123a4.109 4.109 0 0 1-2.837-1.137 3.81 3.81 0 0 1-1.18-2.732V5.75a3.81 3.81 0 0 1 1.18-2.732 4.11 4.11 0 0 1 2.837-1.137h8.035Zm0-1.547H6.123C3.031.334.5 2.771.5 5.75v7.737c0 2.979 2.53 5.416 5.624 5.416h8.035c3.093 0 5.624-2.437 5.624-5.416V5.75c0-2.979-2.531-5.416-5.625-5.416Z"/><path d="M15.364 5.751c-.239 0-.472-.068-.67-.196a1.17 1.17 0 0 1-.444-.52 1.12 1.12 0 0 1-.068-.67 1.14 1.14 0 0 1 .33-.595 1.22 1.22 0 0 1 .617-.318c.234-.045.476-.022.696.066.22.088.408.237.54.428a1.13 1.13 0 0 1-.148 1.466 1.243 1.243 0 0 1-.853.34Zm-5.223.773c.636 0 1.258.182 1.786.522.529.34.94.823 1.184 1.389a2.99 2.99 0 0 1 .183 1.788c-.124.6-.43 1.152-.88 1.585a3.254 3.254 0 0 1-1.646.847 3.33 3.33 0 0 1-1.856-.176 3.192 3.192 0 0 1-1.443-1.14 3.014 3.014 0 0 1-.541-1.72c0-.82.34-1.607.942-2.187a3.281 3.281 0 0 1 2.272-.908Zm0-1.547c-.953 0-1.885.272-2.678.783a4.685 4.685 0 0 0-1.775 2.083 4.483 4.483 0 0 0-.275 2.682c.186.9.646 1.728 1.32 2.377a4.88 4.88 0 0 0 2.468 1.27c.935.18 1.904.087 2.785-.264a4.786 4.786 0 0 0 2.164-1.71 4.52 4.52 0 0 0 .812-2.579 4.557 4.557 0 0 0-1.412-3.282 4.917 4.917 0 0 0-3.409-1.36Z"/></symbol><symbol id="icon-mail" viewBox="0 0 42 31"><rect x="1.5" y="1.5" width="39" height="28" rx="6.5" stroke-width="3"/><path d="m3 3 15.819 14.217a3 3 0 0 0 3.986.022L39 3" stroke-width="3"/></symbol><symbol id="icon-phone" viewBox="0 0 45 45"><path d="M41.72 34.127c-1.565-1.577-5.355-3.878-7.195-4.805-2.395-1.206-2.592-1.305-4.474.093-1.256.934-2.09 1.768-3.56 1.454-1.47-.313-4.663-2.08-7.46-4.867-2.795-2.788-4.665-6.073-4.98-7.538-.314-1.464.534-2.29 1.458-3.548 1.303-1.774 1.205-2.07.09-4.464-.867-1.863-3.236-5.618-4.819-7.175C9.087 1.605 9.087 1.9 7.996 2.354c-.888.373-1.74.828-2.546 1.357-1.577 1.047-2.452 1.918-3.064 3.225-.612 1.308-.887 4.374 2.274 10.116 3.16 5.742 5.378 8.678 9.968 13.254 4.59 4.577 8.12 7.038 13.28 9.932 6.382 3.574 8.83 2.877 10.142 2.266 1.312-.61 2.186-1.478 3.236-3.055.53-.804.986-1.655 1.36-2.542.454-1.088.75-1.088-.926-2.78Z" stroke-width="3" stroke-miterlimit="10"/></symbol><symbol id="icon-pinterest" viewBox="0 0 21 20"><path d="M10.297.334C4.887.334.5 4.72.5 10.126c0 4.01 2.414 7.454 5.865 8.97-.026-.681-.005-1.503.17-2.246l1.26-5.338s-.315-.625-.315-1.547c0-1.452.84-2.536 1.89-2.536.892 0 1.32.67 1.32 1.47 0 .895-.573 2.233-.866 3.475-.245 1.04.52 1.884 1.549 1.884 1.854 0 3.105-2.383 3.105-5.207 0-2.146-1.448-3.75-4.076-3.75-2.97 0-4.824 2.216-4.824 4.69 0 .852.253 1.456.647 1.92.18.213.205.3.14.546-.048.179-.153.611-.201.786-.066.25-.267.337-.49.245-1.37-.56-2.008-2.054-2.008-3.742 0-2.78 2.349-6.116 7.002-6.116 3.74 0 6.202 2.706 6.202 5.61 0 3.842-2.139 6.71-5.288 6.71-1.058 0-2.05-.573-2.392-1.22 0 0-.568 2.255-.69 2.693-.206.756-.613 1.508-.985 2.098a9.85 9.85 0 0 0 2.777.402c5.41 0 9.797-4.384 9.797-9.792 0-5.408-4.382-9.797-9.792-9.797Z"/></symbol><symbol id="icon-play" viewBox="0 0 88 93"><path d="M34.997 60.088V32.744c0-.342.087-.678.253-.972a1.85 1.85 0 0 1 .685-.7 1.72 1.72 0 0 1 1.835.07L57.85 44.81c.255.172.464.41.609.69a1.997 1.997 0 0 1 0 1.831c-.145.28-.354.518-.609.69L37.77 61.695a1.72 1.72 0 0 1-1.835.07 1.853 1.853 0 0 1-.685-.7 1.993 1.993 0 0 1-.253-.972v-.004Z"/><path d="M4.384 46.416C4.384 23.24 22.121 4.454 44 4.454S83.616 23.24 83.616 46.416C83.616 69.59 65.88 88.378 44 88.378S4.384 69.59 4.384 46.416ZM44 10.176c-9.074 0-17.776 3.818-24.193 10.614-6.416 6.797-10.02 16.014-10.02 25.626 0 9.611 3.604 18.829 10.02 25.625C26.224 78.837 34.927 82.656 44 82.656c9.074 0 17.777-3.819 24.193-10.615s10.021-16.014 10.021-25.625c0-9.612-3.605-18.83-10.021-25.626C61.777 13.994 53.074 10.176 44 10.176Z"/></symbol><symbol id="icon-twitter" viewBox="0 0 22 17"><path d="M21.16 2.293a8.686 8.686 0 0 1-2.434.658A4.197 4.197 0 0 0 20.591.644a8.512 8.512 0 0 1-2.693 1.012A4.266 4.266 0 0 0 14.803.334c-2.342 0-4.238 1.868-4.238 4.171-.001.32.035.64.11.951a12.082 12.082 0 0 1-8.738-4.36 4.119 4.119 0 0 0-.576 2.096 4.16 4.16 0 0 0 1.894 3.474 4.197 4.197 0 0 1-1.928-.521v.052c0 2.023 1.464 3.705 3.4 4.089a4.333 4.333 0 0 1-1.116.146 4.06 4.06 0 0 1-.797-.078c.539 1.658 2.106 2.863 3.962 2.897A8.59 8.59 0 0 1 .5 14.977a11.995 11.995 0 0 0 6.488 1.885c7.806 0 12.07-6.357 12.07-11.87 0-.181-.004-.362-.012-.539a8.543 8.543 0 0 0 2.114-2.16Z"/></symbol></svg>