<svg xmlns="http://www.w3.org/2000/svg"><symbol id="icon-arrow-down" viewBox="0 0 150 150"><path d="M77.828 80.842a4 4 0 0 1-5.656 0L46.716 55.386a4 4 0 0 1 5.657-5.657L75 72.356 97.628 49.73a4 4 0 1 1 5.656 5.657L77.828 80.842ZM79 77v1.013h-8V77h8Z"/><path d="M77.828 101.842a4 4 0 0 1-5.656 0L46.716 76.386a4 4 0 0 1 5.657-5.657L75 93.356 97.628 70.73a4 4 0 1 1 5.656 5.657l-25.456 25.456ZM79 98v1.013h-8V98h8Z"/></symbol><symbol id="icon-chevron-down" viewBox="0 0 74 42"><path d="M33.465 40.535a5 5 0 0 0 7.07 0l31.82-31.82a5 5 0 1 0-7.07-7.07L37 29.929 8.716 1.645a5 5 0 0 0-7.071 7.07l31.82 31.82ZM32 33v4h10v-4H32Z"/></symbol><symbol id="icon-css" viewBox="0 0 50 50"><path d="m2 0 5 45 17.48 5L42 45l5-45H2Zm34.316 20.87-.957 15.605L24.57 40l-10.792-3.525-.41-7.461h5.469l.137 3.388 5.595 1.905 5.606-1.905.41-6.103H18.563l-.274-5.43h12.559l.41-5.43H12.41L12 10.02h25l-.684 10.85Z"/></symbol><symbol id="icon-github" viewBox="0 0 32 32"><path fill-rule="evenodd" clip-rule="evenodd" d="M15.952 0C7.132 0 0 7.26 0 16.243c0 7.18 4.57 13.258 10.908 15.41.792.161 1.083-.35 1.083-.78 0-.377-.027-1.667-.027-3.012-4.437.968-5.361-1.937-5.361-1.937-.713-1.882-1.77-2.366-1.77-2.366-1.452-.995.106-.995.106-.995 1.61.108 2.456 1.667 2.456 1.667 1.426 2.474 3.724 1.775 4.648 1.345.132-1.049.555-1.775 1.004-2.178-3.54-.377-7.263-1.775-7.263-8.014 0-1.775.634-3.228 1.637-4.357-.158-.403-.713-2.07.16-4.303 0 0 1.346-.43 4.383 1.667 1.3-.355 2.641-.536 3.988-.538 1.347 0 2.72.189 3.988.538 3.038-2.097 4.385-1.667 4.385-1.667.871 2.232.316 3.9.158 4.303 1.03 1.13 1.637 2.582 1.637 4.357 0 6.239-3.723 7.61-7.289 8.014.581.51 1.083 1.479 1.083 3.012 0 2.178-.026 3.926-.026 4.464 0 .43.29.941 1.082.78 6.34-2.152 10.908-8.23 10.908-15.41C31.904 7.261 24.748 0 15.952 0Z"/></symbol><symbol id="icon-html5" viewBox="0 0 50 50"><path d="M46.725 2.338A1.045 1.045 0 0 0 45.952 2H5.048a1.045 1.045 0 0 0-1.043 1.137l3.685 41.14c.036.432.34.79.756.913l16.764 4.77a.97.97 0 0 0 .286.04.97.97 0 0 0 .286-.04l16.776-4.77c.417-.122.715-.48.756-.913l3.681-41.14a1.026 1.026 0 0 0-.27-.799Zm-8.821 14.185H18.208l.47 5.311H37.43l-1.406 15.697-10.531 3.171-.102-.032-10.409-3.143-.568-6.395h5.1l.22 2.482 5.82 1.215 5.713-1.215.61-6.717H14.033l-1.387-15.449h25.712l-.454 5.075Z"/></symbol><symbol id="icon-javascript" viewBox="0 0 50 50"><path d="M46.72.353A1.066 1.066 0 0 0 45.928 0H4.07c-.3 0-.587.128-.79.353a1.095 1.095 0 0 0-.277.83L6.775 44.04c.04.448.347.825.774.949l17.151 4.97a1.074 1.074 0 0 0 .587 0l17.166-4.97c.427-.124.734-.501.774-.949l3.769-42.855a1.1 1.1 0 0 0-.277-.83Zm-35.647 29 7.5 2.11V9.783h4.284v28.26l-11.784-3.316v-5.375Zm27.912-7.614-1.13 13.315-10.712 2.99v-5.002l7.23-2.016.269-4.076-7.5 1.31V9.784h12.856l-.37 4.347h-8.2v8.696l7.557-1.087Z"/></symbol><symbol id="icon-linkedin" viewBox="0 0 32 33"><path d="M28.19.842H3.81A3.81 3.81 0 0 0 0 4.652v24.38a3.81 3.81 0 0 0 3.81 3.81h24.38a3.81 3.81 0 0 0 3.81-3.81V4.652a3.81 3.81 0 0 0-3.81-3.81ZM9.905 13.032V27.51H5.333V13.032h4.572ZM5.333 8.82c0-1.067.915-1.882 2.286-1.882s2.232.815 2.286 1.882c0 1.067-.854 1.928-2.286 1.928-1.371 0-2.286-.861-2.286-1.928Zm21.334 18.69h-4.572v-7.62c0-1.523-.762-3.047-2.666-3.078h-.061c-1.844 0-2.606 1.57-2.606 3.078v7.62H12.19V13.032h4.572v1.95s1.47-1.95 4.427-1.95c3.024 0 5.478 2.08 5.478 6.294v8.183Z"/></symbol><symbol id="icon-play" viewBox="0 0 24 24"><path fill-rule="evenodd" clip-rule="evenodd" d="M12 22c5.523 0 10-4.477 10-10S17.523 2 12 2 2 6.477 2 12s4.477 10 10 10Zm-1.306-6.154 4.72-2.787c.781-.462.781-1.656 0-2.118l-4.72-2.787C9.934 7.706 9 8.29 9 9.214v5.573c0 .923.934 1.507 1.694 1.059Z"/></symbol><symbol id="icon-plus" viewBox="0 0 120 120"><path d="M60 10v100m50-50H10" stroke-width="20" stroke-linecap="round"/></symbol><symbol id="icon-wordpress" viewBox="0 0 50 50"><path d="M25 2C12.317 2 2 12.318 2 25s10.317 23 23 23 23-10.318 23-23S37.683 2 25 2zm0 5c4.26 0 8.166 1.485 11.247 3.955-.956.636-1.547 1.74-1.547 2.945 0 1.6.9 3 1.9 4.6.8 1.3 1.6 3 1.6 5.4 0 1.7-.5 3.8-1.5 6.4l-2 6.6-7.1-21.2c1.2-.1 2.3-.2 2.3-.2 1-.1.9-1.6-.1-1.6h-.1s-3.2.3-5.3.3c-1.9 0-5.2-.3-5.2-.3h-.1c-1 0-1.1 1.6-.1 1.6 0 0 1 .1 2.1.2l3.1 8.4L19.9 37l-7.2-21.4c1.2-.1 2.3-.2 2.3-.2 1-.1.9-1.6-.1-1.6h-.1s-2.152.202-4.085.274C14.003 9.78 19.168 7 25 7zM7 25c0-1.8.271-3.535.762-5.174l7.424 20.256C10.261 36.871 7 31.323 7 25zm12.678 17.2L25 26.6l5.685 15.471a17.992 17.992 0 0 1-11.007.129zm15.626-2.45L40.6 24.4c.786-2 1.21-3.742 1.39-5.304A17.944 17.944 0 0 1 43 25c0 6.111-3.046 11.497-7.696 14.75z"/></symbol></svg>