<?xml version="1.0" standalone="no"?>
<!DOCTYPE svg PUBLIC "-//W3C//DTD SVG 20010904//EN"
 "http://www.w3.org/TR/2001/REC-SVG-20010904/DTD/svg10.dtd">
<svg version="1.0" xmlns="http://www.w3.org/2000/svg"
 width="800.000000pt" height="800.000000pt" viewBox="0 0 800.000000 800.000000"
 preserveAspectRatio="xMidYMid meet">
<metadata>
Created by potrace 1.14, written by Peter Selinger 2001-2017
</metadata>
<g transform="translate(0.000000,800.000000) scale(0.100000,-0.100000)"
fill="#000000" stroke="none">
<path d="M4952 6918 c-75 -29 -124 -81 -143 -151 -20 -74 -11 -327 15 -441 92
-397 425 -686 831 -721 39 -3 128 -6 198 -6 l129 1 -6 -54 c-4 -30 -9 -64 -12
-77 -3 -13 -8 -37 -11 -54 -3 -16 -9 -38 -14 -47 -5 -10 -7 -18 -5 -18 7 0
-44 -142 -56 -157 -6 -7 -8 -13 -5 -13 3 0 -12 -33 -35 -72 -180 -319 -483
-504 -998 -610 -52 -10 -108 -21 -123 -23 -16 -2 -40 -6 -55 -9 -15 -3 -49 -8
-77 -11 -27 -3 -63 -8 -80 -10 -16 -3 -57 -7 -90 -10 -33 -3 -87 -7 -120 -10
-127 -12 -209 -15 -480 -21 -154 -3 -287 -5 -295 -5 -8 1 -26 1 -40 0 -14 -1
-32 -1 -40 -1 -8 1 -60 1 -115 1 -55 0 -109 1 -120 1 -11 0 -31 0 -45 -1 -14
-1 -32 -1 -40 -1 -8 1 -60 1 -115 1 -55 0 -109 1 -120 1 -11 0 -31 0 -45 -1
-14 -1 -32 -1 -40 -1 -16 1 -200 1 -235 1 -11 0 -49 0 -85 0 -36 0 -72 1 -80
0 -8 0 -44 0 -80 1 -103 1 -201 1 -255 0 -62 -2 -57 -2 -188 2 -59 2 -107 1
-107 -2 0 -5 -21 -5 -115 0 -22 1 -44 1 -50 0 -5 -1 -14 -1 -20 0 -8 1 -70 1
-145 -1 -8 0 -44 0 -80 0 -36 1 -72 1 -80 0 -8 0 -44 0 -80 0 -36 1 -72 1 -80
0 -8 0 -44 0 -80 1 -103 1 -201 1 -255 0 -62 -2 -57 -2 -188 2 -59 2 -107 1
-107 -2 0 -3 -37 -4 -82 -3 -193 4 -341 -103 -393 -282 -24 -82 -14 -212 35
-450 6 -27 12 -60 14 -72 16 -81 96 -323 155 -468 26 -62 159 -321 199 -385
178 -288 436 -581 671 -760 18 -14 47 -37 64 -52 18 -15 35 -28 39 -28 4 0 13
-6 20 -13 13 -12 151 -104 218 -145 43 -26 298 -153 362 -181 90 -39 362 -129
443 -146 51 -11 72 -15 100 -22 17 -4 35 -7 40 -8 6 0 29 -4 53 -9 23 -4 52
-9 65 -11 12 -1 42 -5 67 -9 114 -15 174 -18 458 -21 292 -2 305 -3 332 -24
16 -11 31 -21 34 -21 3 0 21 -11 41 -24 55 -38 221 -120 323 -161 141 -55 228
-48 307 28 50 48 65 79 74 156 7 60 1 56 101 65 60 6 230 35 241 42 4 2 23 6
44 10 72 11 295 82 390 123 60 27 264 127 285 142 14 9 66 43 115 75 50 32 92
61 95 64 3 3 39 32 80 64 73 58 281 261 349 341 43 51 176 227 182 240 2 6 29
48 60 95 30 47 66 105 80 130 13 25 26 47 29 50 12 11 132 263 178 375 43 101
108 275 116 310 1 6 15 48 30 95 15 47 29 92 31 100 2 8 16 58 31 110 26 94
30 111 40 160 5 23 19 87 30 135 3 11 7 31 10 45 2 14 6 34 9 46 3 12 7 39 10
60 4 21 8 47 11 56 3 10 7 28 9 40 2 13 9 57 15 98 6 41 14 88 16 105 3 16 7
49 9 73 3 23 7 55 9 70 3 15 8 56 11 92 4 36 8 72 10 80 2 13 9 95 20 250 9
127 17 285 20 410 2 80 4 148 5 151 0 6 95 12 140 10 77 -4 243 4 305 15 59 9
196 60 262 96 245 133 413 358 472 632 26 118 25 414 -1 461 -42 78 -128 129
-212 126 -57 -2 -112 -24 -181 -73 -70 -49 -148 -91 -230 -121 -147 -54 -221
-66 -445 -72 -85 -2 -164 -6 -175 -8 -127 -29 -266 -85 -322 -129 -7 -6 -25
-1 -50 15 -83 51 -218 102 -303 113 -25 4 -97 7 -160 9 -129 3 -269 13 -282
21 -4 3 -20 7 -35 9 -76 10 -309 110 -355 152 -10 9 -28 22 -41 29 -103 59
-162 70 -235 42z m260 -370 c105 -52 260 -107 348 -122 19 -3 46 -8 60 -11 24
-5 184 -17 205 -16 90 6 169 1 241 -13 59 -12 164 -73 234 -135 53 -48 106
-57 160 -28 19 11 37 23 40 27 13 19 105 81 156 105 60 28 71 32 149 42 47 6
65 6 175 3 41 -1 121 5 195 14 78 10 269 63 325 91 122 61 179 91 203 107 30
22 29 25 29 -67 2 -287 -181 -550 -445 -639 -98 -33 -151 -38 -425 -40 -232
-1 -238 -1 -270 -25 -42 -30 -49 -49 -73 -196 -20 -132 -25 -157 -35 -187 -3
-11 -7 -30 -9 -41 -4 -31 -43 -179 -67 -257 -94 -298 -202 -546 -342 -785 -29
-48 -141 -220 -158 -240 -5 -5 -22 -28 -39 -50 -157 -208 -350 -400 -563 -561
-47 -35 -88 -64 -91 -64 -3 0 -11 -5 -18 -10 -7 -6 -37 -27 -67 -47 -48 -31
-90 -55 -218 -122 -113 -61 -440 -189 -519 -204 -10 -2 -25 -7 -33 -10 -8 -3
-28 -9 -45 -13 -16 -4 -34 -8 -40 -10 -5 -2 -23 -6 -40 -9 -16 -3 -37 -8 -45
-10 -25 -8 -231 -45 -283 -51 -46 -6 -49 -5 -96 39 -70 66 -215 154 -259 157
-4 0 -25 6 -47 12 -65 18 -212 19 -295 2 -76 -16 -230 -80 -230 -95 0 -5 -7
-9 -15 -9 -8 0 -15 -4 -15 -10 0 -5 -4 -10 -10 -10 -14 0 -95 -80 -138 -136
-37 -49 -37 -49 -102 -53 -254 -13 -719 4 -955 35 -27 4 -61 8 -75 10 -78 9
-139 18 -260 40 -74 13 -151 27 -170 30 -19 3 -60 12 -90 19 -30 8 -66 16 -80
18 -14 3 -79 19 -145 37 -66 17 -127 33 -135 35 -8 2 -16 4 -17 5 -2 2 -7 4
-13 5 -5 1 -11 3 -12 5 -3 1 -11 3 -50 13 -7 2 -59 18 -115 36 l-102 34 -30
71 c-39 95 -110 310 -111 336 0 3 -6 28 -14 55 -12 44 -19 77 -41 215 -4 19
-8 57 -11 83 -2 27 -5 52 -6 55 -1 4 2 21 6 38 8 37 43 72 77 80 13 3 852 7
1864 9 1012 2 1867 6 1900 9 33 2 103 7 155 10 122 8 164 12 335 32 35 4 83
10 140 19 71 11 85 14 103 19 9 3 33 7 52 10 47 7 257 61 328 85 418 139 709
372 863 691 76 157 127 322 145 465 2 22 6 45 8 51 3 6 8 58 11 115 4 57 9
106 11 108 2 2 -6 21 -18 43 -40 71 -45 72 -308 74 -233 1 -332 8 -373 23 -12
5 -24 9 -27 9 -7 1 -39 12 -73 25 -56 20 -153 90 -212 151 -125 130 -185 279
-189 471 -2 73 8 92 34 67 10 -9 61 -38 112 -64z m1243 -2020 c-3 -13 -7 -42
-10 -65 -6 -48 -15 -106 -21 -137 -3 -11 -7 -39 -10 -61 -3 -22 -19 -103 -36
-180 -16 -77 -31 -151 -34 -165 -3 -14 -9 -39 -15 -57 -5 -17 -12 -44 -15 -60
-3 -15 -9 -43 -15 -61 -6 -18 -12 -39 -13 -45 -12 -69 -157 -476 -211 -592
-18 -38 -42 -91 -53 -116 -36 -78 -151 -280 -215 -374 -195 -290 -451 -539
-715 -696 -45 -27 -85 -49 -89 -49 -4 0 -14 -6 -22 -14 -19 -16 -244 -112
-286 -122 -16 -4 -34 -10 -40 -14 -11 -9 -298 -81 -312 -79 -4 1 -10 1 -13 -1
-18 -7 -231 -32 -236 -28 -7 8 -20 101 -29 213 -2 28 -7 73 -10 100 -8 75 -15
210 -20 410 -7 226 -13 294 -36 373 -3 9 10 14 42 17 25 2 81 12 125 21 43 9
90 18 104 20 14 3 32 7 40 10 8 3 26 8 40 10 38 7 157 43 235 70 39 14 75 26
80 28 16 5 42 15 144 58 116 49 245 113 346 173 42 25 81 45 86 45 5 0 9 4 9
9 0 5 14 14 30 21 17 7 30 16 30 20 0 4 11 12 24 18 24 11 208 147 268 199
177 152 298 279 458 477 8 10 20 23 25 30 79 92 325 500 325 539 0 8 7 20 15
27 8 7 15 21 15 31 0 11 4 19 9 19 6 0 8 -10 6 -22z m-2942 -1636 c57 -26 132
-89 177 -147 20 -26 56 -111 65 -154 4 -18 9 -115 11 -215 3 -176 8 -293 20
-426 3 -36 7 -87 9 -115 6 -64 13 -128 21 -185 3 -25 8 -61 10 -80 12 -92 23
-168 29 -197 3 -13 3 -23 0 -23 -10 0 -152 65 -225 104 -69 36 -193 115 -243
155 -138 110 -282 286 -346 425 -40 86 -82 212 -86 261 -1 6 -5 30 -9 54 -16
86 -14 213 4 277 68 249 333 374 563 266z m-2655 -92 c62 -17 127 -32 145 -35
18 -3 49 -11 71 -16 21 -6 62 -14 90 -19 66 -12 98 -18 165 -31 30 -6 64 -12
75 -14 12 -1 41 -5 66 -9 62 -10 87 -14 150 -21 30 -3 66 -8 80 -10 42 -6 144
-16 206 -20 32 -2 59 -4 59 -5 0 -5 249 -13 451 -14 l252 -1 1 -110 c1 -60 3
-123 5 -140 2 -16 7 -50 11 -75 13 -101 64 -257 118 -365 36 -73 121 -213 136
-225 3 -3 19 -22 34 -42 26 -35 32 -56 14 -50 -4 1 -74 4 -155 7 -147 4 -184
7 -297 25 -33 5 -78 12 -100 16 -22 3 -43 8 -46 10 -4 2 -24 6 -45 10 -20 3
-48 10 -61 15 -13 5 -23 7 -23 4 0 -2 -19 3 -42 11 -24 9 -54 18 -67 20 -48
10 -249 88 -359 140 -93 44 -188 96 -310 169 -154 92 -414 315 -544 466 -26
30 -59 68 -73 84 -47 54 -175 232 -175 244 0 6 -5 11 -11 11 -5 0 -8 4 -4 9 3
6 18 6 38 0 17 -5 83 -23 145 -39z"/>
<path d="M2171 3854 c-147 -39 -264 -159 -296 -304 -8 -34 -9 -130 -2 -160 18
-82 77 -183 135 -229 169 -132 393 -121 540 26 244 244 82 661 -263 678 -33 1
-84 -4 -114 -11z m171 -278 c34 -24 51 -57 53 -105 8 -155 -215 -188 -256 -38
-24 88 49 173 139 162 24 -2 52 -11 64 -19z"/>
</g>
</svg>
