<svg xmlns="http://www.w3.org/2000/svg"><symbol id="icon-adobe" viewBox="0 0 123.16 136.326"><g fill-rule="evenodd" clip-rule="evenodd"><path d="M105.166 3.116h7.479l-.235 1.324h-1.402c-.701 0-1.168-.155-1.168-.155V6.7c0 .856-.234 1.714-.234 2.57 0 .857-.234 1.714-.234 2.182h-1.869V9.27c0-.856.234-1.714.234-2.57 0-.935.232-2.025.232-2.415h-1.87c-.467 0-.934.155-.934.155V3.116h.001zm8.412 0h2.57c0 .467.234.935.234 1.168 0 .39.467 1.09.701 1.947 0 .234.234.857.234 1.324.232.857.701 1.714.701 1.714 0-.467.467-1.09.701-1.947.232-.623.701-1.558.934-2.181.234-.702.701-1.558.701-2.025h2.805v2.648c0 .935-.234 2.181-.234 3.038v2.649h-1.869V7.555c0-.701.234-1.324.234-1.792v-.855l-2.57 6.544h-1.871c0-.468-.467-1.324-.467-1.948-.234-1.09-.701-1.948-.701-2.181 0-.467-.467-1.324-.701-2.181v2.181c0 .623-.234 1.48-.234 2.181v1.948h-1.869c0-.857.234-1.948.234-2.882 0-.779.232-1.87.232-2.805.001-.857.235-1.714.235-2.649zM23.682 135.779h-4.986l-1.947-7.01H7.556l-1.947 7.01H.779l8.491-31.004h5.453l8.959 31.004zm-8.336-12.074-3.271-11.684-3.039 11.684h6.31zm26.253 12.074h-4.207v-3.193c-.701 1.402-1.636 2.338-2.493 2.727-.856.467-1.792 1.014-2.727 1.014-1.714 0-3.427-1.17-4.674-3.117-1.402-1.791-2.025-4.906-2.025-8.568 0-3.738.624-7.012 1.792-8.959 1.246-1.869 3.038-3.037 5.142-3.037 1.636 0 3.35 1.168 4.829 3.271v-11.141h4.363v31.003zm-11.841-11.683c0 2.336.312 4.439.701 5.375.702 1.402 1.714 2.336 2.883 2.336 1.09 0 1.947-.701 2.648-1.557.701-1.17 1.246-3.117 1.246-5.453 0-2.494-.389-4.596-1.09-5.766-.624-1.168-1.714-1.947-2.804-1.947-.935 0-1.792.779-2.571 1.715-.702 1.168-1.013 2.959-1.013 5.297zm15.424 0c0-1.793.233-3.74.935-5.531.779-1.869 1.792-3.271 3.038-4.207 1.324-1.012 2.96-1.713 4.519-1.713 2.415 0 4.674 1.168 6.154 3.271 1.636 2.336 2.493 5.453 2.493 8.725s-.857 6.232-2.493 8.336c-1.714 2.18-3.739 3.35-6.154 3.35-1.48 0-2.96-.547-4.362-1.402-1.402-.936-2.415-2.338-3.194-4.051-.701-1.793-.935-4.129-.935-6.467v-.311h-.001zm4.362.545c0 2.338.234 4.129.935 5.297.779 1.168 1.948 1.869 3.039 1.869 1.012 0 2.181-.701 2.882-1.869.779-1.168 1.246-2.959 1.246-5.297s-.467-4.285-1.246-5.453c-.701-1.324-1.87-2.104-2.882-2.104-1.091 0-2.181.779-2.805 1.947-.701 1.324-1.169 3.272-1.169 5.61zm16.204 11.138v-31.004h4.361v11.141c1.248-2.104 3.039-3.271 4.752-3.271 2.025 0 3.74 1.168 5.064 3.037 1.324 1.947 2.104 4.908 2.104 8.725 0 3.74-.779 7.012-2.104 8.803-1.402 1.947-3.115 3.117-4.83 3.117-.934 0-1.947-.547-2.805-1.014-.934-.389-1.791-1.557-2.26-2.727v3.193h-4.282zm4.361-11.683c0 2.336.391 4.439.779 5.375.701 1.402 1.871 2.336 3.117 2.336 1.09 0 1.947-.701 2.57-1.557.701-.936 1.09-3.117 1.09-5.453 0-2.494-.389-4.596-1.09-5.766-.623-1.168-1.715-1.947-2.805-1.947-1.012 0-1.869.779-2.57 1.715-.7 1.168-1.091 2.959-1.091 5.297zm25.162 4.674 4.363.701c-.469 2.336-1.559 4.285-2.648 5.141-1.246.936-2.961 1.715-4.752 1.715-2.648 0-4.986-1.402-6.311-3.74-1.09-1.947-1.559-4.674-1.559-7.789 0-3.662.623-6.777 2.025-8.881s3.428-3.271 5.609-3.271c2.414 0 4.363 1.168 5.688 3.271 1.479 2.336 2.336 5.842 2.336 10.283H88.729c0 1.947.234 3.271 1.014 4.283.699.936 1.557 1.324 2.492 1.324.779 0 1.48-.154 1.791-.701.388-.467.857-1.401 1.245-2.336zm.391-6.233c0-1.635-.623-3.115-1.092-3.973-.623-.936-1.557-1.48-2.414-1.48-1.014 0-1.947.779-2.414 1.715-.779.934-1.014 2.336-1.014 3.738h6.934zM0 0h37.392L0 91.066V0zm62.865 0h37.859v89.896L62.865 0zM50.557 34.821 71.201 89.43H58.425l-8.803-17.293H35.6l14.957-37.316z"/></g></symbol><symbol id="icon-calendar" viewBox="0 0 64 64"><path d="M52 8h-6V6a2 2 0 1 0-4 0v2H22V6a2 2 0 1 0-4 0v2h-6a4 4 0 0 0-4 4v40a4 4 0 0 0 4 4h40a4 4 0 0 0 4-4V12a4 4 0 0 0-4-4Zm-34 4v2a2 2 0 0 0 4 0v-2h20v2a2 2 0 0 0 4 0v-2h6v8H12v-8h6Zm34 40H12V24h40v28ZM28 30v16a2 2 0 0 1-4 0V33.235l-1.105.555a2.001 2.001 0 0 1-1.79-3.58l4-2A2 2 0 0 1 28 30Zm14.79 7.612L38 44h4a2 2 0 0 1 0 4h-8a2 2 0 0 1-1.6-3.2l7.195-9.592a1.999 1.999 0 0 0-2.053-3.15 1.999 1.999 0 0 0-1.275.942 1.999 1.999 0 1 1-3.462-2A6 6 0 0 1 44 34a5.94 5.94 0 0 1-1.21 3.612Z"/></symbol><symbol id="icon-camera" viewBox="0 0 64 64"><path d="M52 14h-6.93l-3.407-5.11A2 2 0 0 0 40 8H24a2 2 0 0 0-1.663.89L18.927 14H12a6 6 0 0 0-6 6v28a6 6 0 0 0 6 6h40a6 6 0 0 0 6-6V20a6 6 0 0 0-6-6Zm2 34a2 2 0 0 1-2 2H12a2 2 0 0 1-2-2V20a2 2 0 0 1 2-2h8a2 2 0 0 0 1.665-.89L25.07 12h13.858l3.407 5.11A1.999 1.999 0 0 0 44 18h8a2 2 0 0 1 2 2v28ZM32 22a11 11 0 1 0 11 11 11.012 11.012 0 0 0-11-11Zm0 18a7 7 0 1 1 0-14 7 7 0 0 1 0 14Z"/></symbol><symbol id="icon-chevron-right" viewBox="0 0 24 25"><path fill-rule="evenodd" clip-rule="evenodd" d="M7.293 4.793a1 1 0 0 1 1.414 0l7 7a1 1 0 0 1 0 1.414l-7 7a1 1 0 0 1-1.414-1.414l6.293-6.293-6.293-6.293a1 1 0 0 1 0-1.414Z"/></symbol><symbol id="icon-controller" viewBox="0 0 64 64"><path d="M60.391 30.672c-2.651-11.986-6.641-18.383-12.56-20.13A13.39 13.39 0 0 0 44 10c-1.714 0-3.206.418-4.785.86C37.312 11.394 35.151 12 32 12s-5.314-.605-7.22-1.139C23.2 10.417 21.709 10 20 10a14.469 14.469 0 0 0-3.966.54c-5.888 1.74-9.875 8.135-12.565 20.125C.576 43.568 2 51.714 7.46 53.604a7.08 7.08 0 0 0 2.33.402c3.742 0 6.741-3.116 8.791-5.667C20.9 45.45 23.61 43.986 32 43.986c7.494 0 10.595 1.017 13.274 4.353 1.684 2.097 3.275 3.565 4.862 4.489 2.111 1.227 4.221 1.5 6.27.796 3.228-1.102 5.078-4.013 5.5-8.655.322-3.56-.173-8.236-1.515-14.297ZM26 30h-4v4a2 2 0 0 1-4 0v-4h-4a2 2 0 1 1 0-4h4v-4a2 2 0 0 1 4 0v4h4a2 2 0 0 1 0 4Zm10.5.5a2.5 2.5 0 1 1 0-5 2.5 2.5 0 0 1 0 5ZM42 36a2.5 2.5 0 1 1 0-5 2.5 2.5 0 0 1 0 5Zm0-11a2.5 2.5 0 1 1 0-5 2.5 2.5 0 0 1 0 5Zm5.5 5.5a2.5 2.5 0 1 1 0-5 2.5 2.5 0 0 1 0 5Z"/></symbol><symbol id="icon-dribble" viewBox="0 0 14 14"><path fill-rule="evenodd" clip-rule="evenodd" d="M13.4 6.991a6.405 6.405 0 0 1-.504 2.488 6.436 6.436 0 0 1-2.318 2.811c-.342.23-.708.429-1.087.59a6.43 6.43 0 0 1-4.983 0 6.465 6.465 0 0 1-1.087-.59 6.445 6.445 0 0 1-2.318-2.81A6.37 6.37 0 0 1 .73 5.705a6.355 6.355 0 0 1 .964-2.288 6.453 6.453 0 0 1 1.728-1.725A6.337 6.337 0 0 1 5.71.73a6.45 6.45 0 0 1 3.78.372 6.419 6.419 0 0 1 2.815 2.315A6.33 6.33 0 0 1 13.4 6.991ZM4.668 2.055a5.466 5.466 0 0 0-3.017 3.81c.144.002 2.422.03 5.046-.665a32.862 32.862 0 0 0-2.03-3.145ZM7.15 6.04c-2.814.841-5.515.78-5.612.777-.001.059-.004.116-.004.174 0 1.402.53 2.68 1.4 3.647-.001-.003 1.494-2.653 4.444-3.605.071-.024.144-.045.215-.065-.137-.31-.286-.621-.443-.928Zm3.46-3.145A5.444 5.444 0 0 0 7 1.534c-.444 0-.875.053-1.288.153.082.11 1.108 1.47 2.043 3.183 2.062-.772 2.84-1.955 2.854-1.975ZM7.965 7.872l-.036.012c-3.225 1.122-4.278 3.385-4.29 3.41a5.46 5.46 0 0 0 5.494.722 22.696 22.696 0 0 0-1.168-4.144Zm2.088 3.645a5.458 5.458 0 0 0 2.342-3.66 7.94 7.94 0 0 0-3.406-.238 23.595 23.595 0 0 1 1.064 3.898ZM8.176 5.684a17.198 17.198 0 0 1 .481 1.074c1.878-.236 3.727.16 3.806.177a5.425 5.425 0 0 0-1.242-3.41c-.01.014-.887 1.279-3.045 2.159Z"/></symbol><symbol id="icon-edit" viewBox="0 0 64 64"><path d="M5.333 53.333V10.667h5.334L16 21.333h8l-5.333-10.666H24l5.333 10.666h8L32 10.667h5.333l5.334 10.666h8l-5.334-10.666h8c1.467 0 2.723.522 3.768 1.568 1.046 1.045 1.568 2.3 1.566 3.765v2.933L32 45.6v7.733H5.333Zm32 2.667v-8.2l17.534-17.467 8.2 8.134L45.533 56h-8.2Zm17.534-14.933 2.466-2.6L54.867 36l-2.534 2.533 2.534 2.534Z"/></symbol><symbol id="icon-film" viewBox="0 0 64 65"><path d="M53.333 8.5a5.333 5.333 0 0 1 5.334 5.333v37.334a5.333 5.333 0 0 1-5.334 5.333H10.667a5.333 5.333 0 0 1-5.334-5.333V13.833A5.333 5.333 0 0 1 10.667 8.5h42.666Zm-10.666 5.333H21.333v37.334h21.334V13.833Zm10.666 32H48v5.334h5.333v-5.334Zm-37.333 0h-5.333v5.334H16v-5.334Zm37.333-10.666H48V40.5h5.333v-5.333Zm-37.333 0h-5.333V40.5H16v-5.333ZM53.333 24.5H48v5.333h5.333V24.5ZM16 24.5h-5.333v5.333H16V24.5Zm37.333-10.667H48v5.334h5.333v-5.334Zm-37.333 0h-5.333v5.334H16v-5.334Z"/></symbol><symbol id="icon-instagram" viewBox="0 0 14 14"><path fill-rule="evenodd" clip-rule="evenodd" d="M7 .6C5.263.6 5.045.608 4.363.64 3.68.67 3.215.778 2.808.936c-.42.164-.778.382-1.133.738a3.142 3.142 0 0 0-.74 1.134C.778 3.215.67 3.68.64 4.36.608 5.044.6 5.262.6 7.001c0 1.737.008 1.955.039 2.637.031.682.139 1.147.297 1.554.164.42.382.778.738 1.134.356.356.713.575 1.133.738.408.159.873.266 1.554.298.683.03.9.038 2.639.038 1.738 0 1.956-.007 2.638-.038.682-.032 1.147-.14 1.554-.298a3.13 3.13 0 0 0 1.133-.738c.356-.356.575-.713.739-1.134.157-.407.265-.872.297-1.553.031-.683.039-.9.039-2.639 0-1.738-.008-1.956-.039-2.639-.032-.681-.14-1.146-.297-1.553a3.141 3.141 0 0 0-.739-1.134 3.128 3.128 0 0 0-1.133-.738C10.784.778 10.319.67 9.637.64 8.955.608 8.737.6 7 .6Zm-.574 1.153h.575c1.708 0 1.91.007 2.586.037.624.029.962.133 1.188.22.299.117.512.255.736.48.224.223.362.437.478.735.088.226.192.564.22 1.188.032.675.038.878.038 2.586 0 1.708-.006 1.91-.037 2.585-.029.624-.133.963-.22 1.188a1.98 1.98 0 0 1-.48.735 1.98 1.98 0 0 1-.735.479c-.225.088-.564.192-1.188.22-.675.031-.878.038-2.586.038-1.71 0-1.912-.007-2.587-.037-.624-.03-.962-.134-1.188-.221a1.982 1.982 0 0 1-.736-.479 1.984 1.984 0 0 1-.479-.736c-.088-.225-.192-.564-.22-1.187-.031-.675-.037-.878-.037-2.587s.006-1.91.037-2.585c.028-.624.132-.963.22-1.189.116-.298.255-.512.479-.736.224-.224.437-.362.736-.479.226-.088.564-.192 1.188-.22.59-.027.82-.035 2.012-.036v.001Zm3.99 1.063a.768.768 0 1 0 0 1.536.768.768 0 0 0 0-1.536Zm-3.415.897a3.287 3.287 0 1 0 0 6.574 3.287 3.287 0 0 0 0-6.574Zm0 1.154a2.133 2.133 0 1 1 0 4.267 2.133 2.133 0 0 1 0-4.267Z"/></symbol><symbol id="icon-pencil" viewBox="0 0 64 64"><path d="M55.227 18.773c1.04-1.04 1.04-2.773 0-3.76l-6.24-6.24c-.987-1.04-2.72-1.04-3.76 0l-4.907 4.88 10 10M8 46v10h10l29.493-29.52-10-10L8 46Z"/></symbol><symbol id="icon-plus" viewBox="0 0 28 29"><path d="M25.571 11.594h-8.678V2.875c0-1.07-.864-1.938-1.929-1.938h-1.928a1.933 1.933 0 0 0-1.929 1.938v8.719H2.43A1.933 1.933 0 0 0 .5 13.53v1.938c0 1.07.864 1.937 1.929 1.937h8.678v8.719c0 1.07.864 1.938 1.929 1.938h1.928a1.933 1.933 0 0 0 1.929-1.938v-8.719h8.678A1.933 1.933 0 0 0 27.5 15.47v-1.94c0-1.07-.864-1.937-1.929-1.937Z"/></symbol><symbol id="icon-puzzle" viewBox="0 0 64 65"><path d="M54.667 29.833h-4V19.167a5.333 5.333 0 0 0-5.334-5.334H34.667v-4a6.666 6.666 0 1 0-13.334 0v4H10.667a5.333 5.333 0 0 0-5.334 5.334V29.3h4c4 0 7.2 3.2 7.2 7.2s-3.2 7.2-7.2 7.2h-4v10.133a5.333 5.333 0 0 0 5.334 5.334H20.8v-4c0-4 3.2-7.2 7.2-7.2s7.2 3.2 7.2 7.2v4h10.133a5.333 5.333 0 0 0 5.334-5.334V43.167h4a6.667 6.667 0 1 0 0-13.334Z"/></symbol><symbol id="icon-redbox" viewBox="-15.18 -0.066 654.282 191.09"><path d="M595.5 147.14a4.82 4.82 0 0 1-4.09 4.39 12 12 0 0 1-1.8-.08 14.14 14.14 0 0 0-2.06-.07h-30.16a1.81 1.81 0 0 0-1.08.11 4.82 4.82 0 0 1-3.84-4.35q.22-4.5 0-9c.08-1.82.72-2.49 2.46-2.59a13.77 13.77 0 0 0 3.33-.24 1.69 1.69 0 0 0 1.14-2.68 9.2 9.2 0 0 0-1.71-2.07q-6.44-7-12.87-14c-2.34-2.54-5.27-2.55-7.57 0-3.92 4.44-7.76 8.94-11.63 13.42a2.44 2.44 0 0 0-.74 2.58c.42 1 1.4 1.16 2.39 1.2 3.56.16 5.55 2.25 5.55 5.84v7.08a5 5 0 0 1-4.13 4.85c-.24-.12-.51-.1-.75-.21-10.56.13-21.11 0-31.66.06H491a9.38 9.38 0 0 0-1.29.12 4.91 4.91 0 0 1-4-4.7c-.17-2.86 0-5.74 0-8.62 0-.11.1-.22.16-.34.32 2.79 0 5.59.15 8.38-.13-2.79.19-5.58-.15-8.37.29-2.45 2.19-4 4.93-4.09 2.27-.07 4.56.26 6.8-.26a13.87 13.87 0 0 0 7.4-4.36q11.31-12.6 22.71-25.12c1.76-1.93 1.75-2.81 0-4.7-9.33-10-18.68-20-27.76-30.29a5.93 5.93 0 0 0-5.27-2.36 7 7 0 0 1-2.81-.2 4.4 4.4 0 0 1-3.36-3.63c-.21-3.08.29-6.17 0-9.26a5 5 0 0 1 5.08-4.9h35.09a5 5 0 0 1 5.21 4.9 68.65 68.65 0 0 0 0 8.24c-.16 2.62-2 4.43-5.09 4.83-.92.12-1.9.14-2.29 1.11s.19 2 .91 2.76c3.8 4.15 7.56 8.33 11.4 12.45a4.64 4.64 0 0 0 7.13-.15q5.4-6.06 10.75-12.16a5.42 5.42 0 0 0 .85-1.27 1.74 1.74 0 0 0-1.42-2.66c-.72-.13-1.45-.13-2.17-.26a4.92 4.92 0 0 1-4-4.39c.37-1.35-.06-2.7 0-4.06v-5a5 5 0 0 1 4.79-4.38h33.3a5.15 5.15 0 0 1 5 4.95q.07 4 0 8a5.25 5.25 0 0 1-4.22 4.86c-1.4.28-2.83 0-4.23.39a14.43 14.43 0 0 0-7.6 4.69C569.8 79.69 562.73 88 555.37 96c-.12.12-.23.25-.35.38-1.76 2-1.73 2.69.1 4.68 8.44 9.17 16.9 18.31 25.29 27.53a14.72 14.72 0 0 0 10.35 5.27 5 5 0 0 1 4.74 4.59 79.63 79.63 0 0 0 0 8.69zM619.44 153.87a17.93 17.93 0 1 1 17.91-18 17.84 17.84 0 0 1-17.91 18zM608.47 54.87a5.43 5.43 0 1 1-10.85-.2 5.56 5.56 0 0 1 5.55-5.42 5.42 5.42 0 0 1 5.3 5.62z"/><path d="m489.71 151.51.77-.49a2.6 2.6 0 0 0 1.38.12h34.91a2.73 2.73 0 0 1 1.39.11.55.55 0 0 1 .52.26 2.86 2.86 0 0 1-1.63.23h-35.58a3.31 3.31 0 0 1-1.76-.23zM86 104.6c.39-.39.89-.23 1.35-.23h72.08c.47 0 1.05-.26 1.4.34-.56 0-1.12-.08-1.67-.08H87.53c-.53.01-1.03-.02-1.53-.03zM589.86 151.28c.51.08 1.09-.21 1.55.25a2.47 2.47 0 0 1-1.51.23h-32a3.37 3.37 0 0 1-1.63-.27l.51-.47a13.17 13.17 0 0 0 3.32.12h28.33a2.75 2.75 0 0 1 1.43.14zM250.19 3.84c.32.32.22.73.22 1.1v51.94a.51.51 0 0 1-.26.49V4.08a.24.24 0 0 1 .04-.24zM32.77 128.59c-.29-.28-.22-.64-.22-1V110a.6.6 0 0 1 .19-.45c0 .37.07.73.11 1.1l-.08 17.94zM24 49.24c-.32.32-.73.22-1.1.22H6c-.37 0-.78.1-1.09-.22zM549.87 53.08c.41.43.22 1 .23 1.45v6.36c0 .41.14.86-.25 1.2a53.15 53.15 0 0 1 .02-9.01zM28.69 54.06v13.69h-.27V54.56c0-.41-.13-.86.21-1.22zM294.8 0c-.27.29-.63.22-1 .22h-12.5c-.34 0-.7.07-1-.23zm-25.55 0c-.27.3-.63.23-1 .23h-12.5c-.34 0-.7.07-1-.22zM488.43 53.59c.37.35.23.8.23 1.22v6.81c0 .42.14.87-.21 1.23-.45-3.08-.06-6.17-.02-9.26zM445.29 45.38c-2.06.48-4.16.11-6.24.2-.57 0-1.2.21-1.74-.21a33.81 33.81 0 0 1 7.98.01zM552.47 138.14a3.7 3.7 0 0 1 .2 2.25c-.07 2.25.28 4.51-.2 6.75zM595.5 147.14a4.49 4.49 0 0 1-.2-2.51c.07-2.07-.29-4.17.2-6.23.11 2.91.11 5.83 0 8.74zM533.81 61.83c-.49-1.81-.16-3.65-.2-5.47a5.23 5.23 0 0 1 .2-2.77zM74.63 60c-.47-.46-.27-1.05-.25-1.57.1-2.05-.29-4.12.21-6.15q.01 3.89.04 7.72zM495.36 102.29a15.87 15.87 0 0 1 0-5.91 29.18 29.18 0 0 1 0 5.91zM117 45.37a15 15 0 0 1-5.66 0 33.43 33.43 0 0 1 5.66 0z"/><path d="M269.25 0a31 31 0 0 1-4.72.09c-3.24 0-6.48.14-9.72-.08a4.87 4.87 0 0 0-4.62 3.83 4.22 4.22 0 0 1 .09 1.54v50.73V5.26a1.91 1.91 0 0 0-.12-1.13 3.31 3.31 0 0 0-.25 1.87v50.88a2.82 2.82 0 0 1-.13 1.44c-14.33-11.43-30.38-15.62-48.19-11.17s-29.91 15.72-37.26 32.41c-.15-.29-.26-.48-.34-.67a53.73 53.73 0 0 0-30.06-29.8 47.76 47.76 0 0 0-17-3.69 34.51 34.51 0 0 1-5.66 0 39.44 39.44 0 0 0-5.63.45 51.67 51.67 0 0 0-27 11.09c-1.33 1-2.45 2.35-4 3.11a51 51 0 0 1 0-7.72 4.37 4.37 0 0 0-.22-1.9c-.59-2.28-1.33-2.81-3.68-2.8a130.69 130.69 0 0 0-14.26.85A28.3 28.3 0 0 0 45 52.05c-6.21 3.65-10.51 9-13.74 15.26A6.24 6.24 0 0 1 30.17 69c-.48.45-.82.34-1.1-.22a3.15 3.15 0 0 1-.19-1.39v-9.65a15.28 15.28 0 0 0-.15-3.7 1.22 1.22 0 0 0-.1.24v-1A4.94 4.94 0 0 0 24 49.24a3.67 3.67 0 0 1-1.4.09H6.95a6.93 6.93 0 0 1-2-.09 5.09 5.09 0 0 0-4.89 5C0 56.8 0 59.38 0 62a5.24 5.24 0 0 0 4.27 5A18.66 18.66 0 0 0 7 67a5.33 5.33 0 0 1 5.71 5.71v55.64a5.49 5.49 0 0 1-2.19 4.56A8.38 8.38 0 0 1 8 134l.08.1s-.06.06-.09.06a18.68 18.68 0 0 1-3.26-.1A5.06 5.06 0 0 0 0 139c-.06 2.56 0 5.14 0 7.7a5.07 5.07 0 0 0 3.86 4.83 8.1 8.1 0 0 1 1-.18c-.25 0-.5.16-.75.22a1.3 1.3 0 0 0 1 .23h34.41a5 5 0 0 0 4.93-4.1c.52-2.58.1-5.21.23-7.82a5.47 5.47 0 0 0-5.87-5.94c-3.52.11-5.54-1.79-6-5.32-.24-6 0-12.07-.13-18.1l.13.05.08.1c.15-2.43.31-4.87.46-7.3a102.6 102.6 0 0 1 2.13-17.58c1.8-7.9 6.57-13.26 14.52-15.52a62.23 62.23 0 0 1 11-1.73c2.15-.21 4.3-.34 6.66-.52l-.82 1.28a49.94 49.94 0 0 0-8.44 22.63 63.84 63.84 0 0 0 .49 19 46.76 46.76 0 0 0 11.42 24c10.84 11.85 24.47 17.92 40.42 18.87a64.7 64.7 0 0 0 18.81-1.51c6.66-1.58 13.12-3.7 18.85-7.58a76.69 76.69 0 0 0 14.43-13.15c2.08-2.36 1.47-5-1.38-6.29-2.53-1.17-5.08-2.28-7.64-3.37a8.59 8.59 0 0 0-9.39 1.37 74.88 74.88 0 0 1-15.36 9.81 33.11 33.11 0 0 1-21 2.86c-8-1.57-14.36-5.88-19.53-12-3.51-4.18-5.27-9.25-6.91-14.35a3.27 3.27 0 0 1-.15-1.65c.43-2.14 1.73-3.1 4.55-3.3a2.73 2.73 0 0 1 1.27-.11h72.38c.39 0 .86-.23 1.18.22a26.34 26.34 0 0 0 .5 4 54.07 54.07 0 0 0 83.52 36c1.69-1.14 3.29-2.4 5.07-3.7v5.4a5.37 5.37 0 0 0 5.51 5.42h12.77c1.08 0 1.34-.28 1.34-1.34V1.2c-.06-.44.22-.92-.3-1.2zM5.66 151.39a1.13 1.13 0 0 0-.33-.08 2.32 2.32 0 0 1 .58.08zm22.89-96.06v7.49c.03-2.49-.06-4.99 0-7.49zM141 90.14c-.33.3-.74.17-1.11.17H86.9c-.37 0-.77.12-1.12-.16-2.61-.74-3.54-1.79-3.47-3.88a3.66 3.66 0 0 1 .46-1.58c5.5-11 14.28-17.68 26.43-19.41 11.4-1.63 21.29 2 29.39 10.13 2.85 2.88 4.33 6.66 5.41 10.51.58 2.08-.55 3.45-3 4.22zm73.78 44.1a34.54 34.54 0 1 1 34.41-34.53 34.61 34.61 0 0 1-34.46 34.53z"/><path d="M13.19 127.82v1h-.26V73.65c0-.49-.19-1 .25-1.47a2.51 2.51 0 0 1 .12 1.27v53.15a2.46 2.46 0 0 1-.11 1.22zM85.78 90.15H141c-.3.46-.77.3-1.17.3H86.36c-.27 0-.57.15-.81-.11v-.09z"/><path d="M13.19 127.82V72.14c.42.38.25.89.25 1.34v53c0 .45.17.96-.25 1.34zM5.44 151.28h32.71v.2c-.33 0-.66.05-1 .05H6.78c-.45 0-1 .17-1.34-.25zM495.34 96.38a27.71 27.71 0 0 0-.71-6.49q-6.22-30.37-35.19-41.56a44.67 44.67 0 0 0-14.15-2.95c-1.56.28-3.12-.12-4.69-.07a10.37 10.37 0 0 1-3.29.06 35.14 35.14 0 0 0-9 1.35q-31.23 8.72-39.84 40c-.14.51 0 1.19-.49 1.53-5-19.46-16.52-33.33-35.69-39.85s-36.7-2.58-52.6 10V5.64c0-3.15-2.07-5.46-4.87-5.58-2.89.21-5.79.07-8.69.08a46 46 0 0 1-5.77-.14c-.51.39-.24.93-.24 1.39v149.1c0 1.11.32 1.32 1.36 1.31 4.13-.06 8.26 0 12.39 0 3.61 0 5.83-2.23 5.85-5.87v-4.9c16 12.56 33.64 16.46 52.81 9.86s30.62-20.51 35.57-40.21c.2.84.32 1.42.47 2 7 27.94 34.51 45.8 62.59 40.31 18.79-3.68 32.14-14.58 40-32a47.19 47.19 0 0 0 4.25-18.66 34.31 34.31 0 0 1-.07-5.95zm-152.85 37c-1.79.42-3.63.58-5.45.86a10.42 10.42 0 0 1-4.2 0 39.23 39.23 0 0 1-8.92-1.8c-12.91-4.8-20.88-14-23.07-27.52C298 87 309.35 70.4 326.94 66.05c18.63-4.6 38.11 7.83 41.71 26.62s-7.58 36.25-26.16 40.68zm98.62.82a34.63 34.63 0 1 1 34.67-34.56 34.71 34.71 0 0 1-34.67 34.53z"/><path d="M299.2 6.16c.36.29.25.7.25 1.08v50a.43.43 0 0 1-.25.39v-2a2.37 2.37 0 0 1-.12-1.26v-47a2.36 2.36 0 0 1 .12-1.21z"/><path d="M299.2 6.16v49.49c-.42-.38-.25-.89-.25-1.34V7.49c.05-.49-.17-.95.25-1.33zM332.84 134.22H337l.6.09c-1.88.41-3.75.13-5.77.24.42-.4.74-.23 1.01-.33zM528.16 151.27h-36.35c-.45 0-.95.17-1.33-.25h35.09a12.19 12.19 0 0 0 2.55-.16c.78-.16-.06.27.04.41zm61.7.01h-31.58c-.49 0-1 .19-1.46-.25h31.7c.48-.03.96-.17 1.34.25zM485.82 137.86c.08.14.24.28.24.43 0 2.77 0 5.54-.24 8.31v-8.75zM603.07 59a4.24 4.24 0 0 1-4.35-4.27 4.37 4.37 0 0 1 4.36-4.29 4.28 4.28 0 1 1 0 8.56z"/><path d="M605.48 57c-.92.34-1.43.16-1.7-.6a1 1 0 0 0-1.16-.77c-.7.11-.41.64-.43 1s-.32.53-.7.53-.49-.16-.49-.52v-4c0-.25 0-.59.32-.59 1.1 0 2.25-.3 3.29.26a1.48 1.48 0 0 1 .63 2.11c-.68 1.02-.79 1.81.24 2.58z"/><path d="M602.18 53.84c0-.55-.08-1.11.8-1 .65.08 1.34.16 1.31 1s-.72.91-1.37 1-.77-.44-.74-1z"/></symbol><symbol id="icon-smile" viewBox="0 0 64 64"><path d="M32 6.4a25.6 25.6 0 1 0 0 51.2 25.6 25.6 0 0 0 0-51.2ZM20.78 25.84a1.6 1.6 0 1 1-3.16-.48c.406-2.672 2.834-4.56 5.574-4.56 2.739 0 5.168 1.888 5.574 4.56a1.6 1.6 0 1 1-3.162.48c-.144-.944-1.084-1.84-2.412-1.84-1.328 0-2.27.896-2.413 1.84Zm17.6 0a1.6 1.6 0 0 1-3.16-.48c.406-2.672 2.834-4.56 5.574-4.56 2.739 0 5.168 1.888 5.574 4.56a1.6 1.6 0 0 1-3.162.48c-.147-.944-1.084-1.84-2.412-1.84-1.328 0-2.266.896-2.413 1.84ZM17.585 33.6h28.8c-.688 7.04-6.173 12.8-14.4 12.8-8.224 0-13.712-5.76-14.4-12.8Z"/></symbol><symbol id="icon-stethoscope" viewBox="0 0 64 64"><g clip-path="url(#a)"><path d="M54.4 32.864V15.968a3.2 3.2 0 1 0-6.4 0V48a16 16 0 1 1-32 0v-3.456A19.2 19.2 0 0 1 0 25.6V6.4C0 2.88 2.88 0 6.4 0h3.2a3.2 3.2 0 1 1 0 6.4H6.4v19.2a12.8 12.8 0 0 0 25.6 0V6.4h-3.2a3.2 3.2 0 1 1 0-6.4H32a6.4 6.4 0 0 1 6.4 6.4v19.2a19.2 19.2 0 0 1-16 18.944V48a9.6 9.6 0 1 0 19.2 0V16a9.6 9.6 0 1 1 19.2 0v16.864a6.4 6.4 0 1 1-6.4 0Z"/></g><defs><clipPath id="a"><path d="M0 0h64v64H0z"/></clipPath></defs></symbol><symbol id="icon-timConf" viewBox="0 0 196 37"><path d="M19.642 35.03a30.607 30.607 0 0 1-4.244 1.428 18.49 18.49 0 0 1-4.392.542 11.27 11.27 0 0 1-3.01-.394 6.768 6.768 0 0 1-2.518-1.281c-.69-.591-1.25-1.363-1.678-2.316-.395-.952-.592-2.135-.592-3.547V17.589H0v-7.046h3.208V2.414h9.377v8.13h5.083v7.044h-5.083v8.573c0 .854.18 1.462.543 1.823.362.328.855.493 1.48.493a7.42 7.42 0 0 0 1.58-.197 12.829 12.829 0 0 0 1.776-.64l1.678 7.39Zm2.658 1.428V10.543h9.377v25.915H22.3Zm0-28.082V.493h9.377v7.883H22.3Zm55.973 28.082h-9.377V21.875c0-1.281-.264-2.2-.79-2.76-.493-.59-1.102-.886-1.826-.886-.757 0-1.563.345-2.418 1.035-.823.69-1.431 1.576-1.826 2.66v14.534h-9.377V21.875c0-1.281-.264-2.2-.79-2.76-.493-.59-1.102-.886-1.826-.886-.757 0-1.563.345-2.418 1.035-.823.69-1.432 1.576-1.826 2.66v14.534h-9.377V10.543h8.439v3.843c.921-1.412 2.188-2.48 3.8-3.202 1.612-.756 3.52-1.133 5.725-1.133 1.053 0 1.974.131 2.764.394.79.23 1.464.558 2.023.985.593.427 1.053.903 1.382 1.429a6.66 6.66 0 0 1 .84 1.675c.92-1.412 2.17-2.513 3.75-3.301 1.612-.788 3.438-1.182 5.478-1.182 1.711 0 3.06.328 4.047.985 1.02.624 1.793 1.412 2.32 2.365.526.952.872 1.97 1.036 3.054.165 1.084.247 2.07.247 2.957v17.046Zm3.037-17.786c0-2.134.395-4.237 1.185-6.306A17.47 17.47 0 0 1 86.048 6.8c1.546-1.642 3.422-2.973 5.626-3.99 2.206-1.02 4.722-1.53 7.551-1.53 3.389 0 6.317.706 8.785 2.118 2.501 1.38 4.36 3.22 5.577 5.518l-7.354 5.223c-.329-.854-.773-1.56-1.332-2.119a6.302 6.302 0 0 0-1.777-1.33 7.694 7.694 0 0 0-2.073-.69 10.82 10.82 0 0 0-2.023-.197c-1.382 0-2.583.28-3.603.838a7.31 7.31 0 0 0-2.468 2.118c-.625.854-1.102 1.84-1.43 2.956a12.292 12.292 0 0 0-.445 3.252c0 1.215.181 2.381.543 3.498a9.119 9.119 0 0 0 1.58 2.956 8.092 8.092 0 0 0 2.516 2.07c1.02.492 2.155.738 3.406.738.658 0 1.332-.065 2.023-.197a8.404 8.404 0 0 0 1.974-.739 6.928 6.928 0 0 0 1.728-1.33 5.96 5.96 0 0 0 1.233-2.02l7.847 4.68c-.526 1.282-1.332 2.431-2.418 3.45a14.574 14.574 0 0 1-3.652 2.561 18.833 18.833 0 0 1-4.392 1.577 19.94 19.94 0 0 1-4.54.542c-2.6 0-4.985-.51-7.157-1.528a18.837 18.837 0 0 1-5.577-4.138 18.954 18.954 0 0 1-3.603-5.814c-.855-2.168-1.283-4.368-1.283-6.602Zm47.948 18.278c-2.336 0-4.393-.36-6.169-1.083-1.744-.756-3.225-1.74-4.442-2.956a13.018 13.018 0 0 1-2.715-4.287 14.995 14.995 0 0 1-.888-5.123c0-1.774.296-3.466.888-5.075a12.377 12.377 0 0 1 2.715-4.286c1.217-1.248 2.698-2.234 4.442-2.956 1.776-.756 3.833-1.133 6.169-1.133 2.303 0 4.343.377 6.119 1.133 1.777.722 3.258 1.708 4.442 2.956a11.485 11.485 0 0 1 2.715 4.286c.625 1.61.937 3.301.937 5.075 0 1.773-.312 3.481-.937 5.123a12.031 12.031 0 0 1-2.715 4.287c-1.184 1.215-2.665 2.2-4.442 2.956-1.776.722-3.816 1.084-6.119 1.084Zm-4.59-13.45c0 1.741.428 3.105 1.283 4.09.855.985 1.958 1.478 3.307 1.478s2.451-.493 3.306-1.478c.856-.985 1.283-2.349 1.283-4.09 0-1.74-.427-3.103-1.283-4.088-.855-.986-1.957-1.479-3.306-1.479s-2.452.493-3.307 1.479c-.855.985-1.283 2.348-1.283 4.089Zm48.23 12.958h-9.377V21.875c0-1.281-.296-2.2-.888-2.76-.559-.59-1.217-.886-1.974-.886-.79 0-1.629.345-2.517 1.035a6.151 6.151 0 0 0-1.974 2.66v14.534h-9.377V10.543h8.439v3.843c.921-1.412 2.204-2.48 3.849-3.202 1.678-.756 3.653-1.133 5.923-1.133 1.777 0 3.175.328 4.195.985 1.053.624 1.842 1.412 2.369 2.365.559.952.921 1.97 1.085 3.054.165 1.084.247 2.07.247 2.957v17.046Zm6.371 0V20.594h-3.208v-7.045h3.208V10.74c0-1.61.231-3.07.691-4.384.461-1.347 1.103-2.48 1.925-3.4a8.054 8.054 0 0 1 2.961-2.168C186.031.263 187.347 0 188.794 0c2.172 0 4.574.493 7.206 1.478l-1.579 7.095a13.408 13.408 0 0 0-1.826-.493 8.255 8.255 0 0 0-1.678-.197c-1.514 0-2.271.837-2.271 2.513v3.153h5.676v7.045h-5.676v15.864h-9.377Z"/></symbol><symbol preserveAspectRatio="xMidYMid" id="icon-twitch" viewBox="0 0 256 268"><path d="M17.458 0 0 46.556v186.201h63.983v34.934h34.931l34.898-34.934h52.36L256 162.954V0H17.458Zm23.259 23.263H232.73v128.029l-40.739 40.741H128L93.113 226.92v-34.886H40.717V23.263Zm64.008 116.405H128V69.844h-23.275v69.824Zm63.997 0h23.27V69.844h-23.27v69.824Z"/></symbol><symbol id="icon-twitter" viewBox="0 0 12 10"><path fill-rule="evenodd" clip-rule="evenodd" d="m5.64 2.754.026.415-.42-.05c-1.528-.196-2.862-.857-3.995-1.967L.697.602l-.143.406c-.302.907-.11 1.864.52 2.508.336.356.26.407-.319.195-.201-.068-.377-.118-.394-.093-.059.06.143.83.302 1.136.218.423.663.839 1.15 1.084l.411.195-.486.009c-.47 0-.487.008-.437.186.168.55.831 1.136 1.57 1.39l.52.178-.453.27c-.672.39-1.46.611-2.25.628-.377.008-.688.042-.688.068 0 .085 1.024.56 1.62.745 1.788.551 3.911.314 5.506-.627 1.133-.669 2.267-2 2.795-3.288.286-.686.571-1.94.571-2.542 0-.39.025-.44.495-.906.277-.272.538-.568.588-.653.084-.16.075-.16-.353-.017-.713.254-.814.22-.461-.16.26-.272.57-.764.57-.908 0-.025-.125.017-.268.094a4.685 4.685 0 0 1-.739.288l-.453.144-.411-.28C9.233.5 8.914.33 8.746.28 8.318.161 7.663.178 7.277.313c-1.049.382-1.712 1.365-1.636 2.44Z"/></symbol><symbol id="icon-vegasPro" viewBox="0 0 122.88 122.88"><defs><style>.cls-1{fill:#0028be}</style></defs><path class="cls-1" d="M4.31 4.31v114.26h114.26V4.31ZM0 0h122.88v122.88H0V0Z"/><path class="cls-1" d="M28.21 27.29H38.3Q47.53 52.4 56.79 77.5c1 2.73 1.94 5.48 2.78 8.27.24.72.42 1.47.68 2.19 1.47-5.32 3.49-10.47 5.47-15.62L83 27.3h9.53L65 95.58h-9.54q-6.07-15.14-12.1-30.31-7.5-18.8-15-37.59c-.05-.13-.1-.27-.14-.4Z"/><path d="M28.21 27.29c0 .13.09.27.14.4q7.49 18.79 15 37.59 6.06 15.16 12.1 30.31h9.54l27.51-68.3h-9.53L65.72 72.36c-2 5.15-4 10.3-5.47 15.62-.26-.72-.44-1.47-.68-2.19-.84-2.79-1.78-5.54-2.78-8.27Q47.55 52.41 38.3 27.31c-.64-.06-1.29 0-1.93 0h-8.16Zm-23.9-23h114.26v114.26H4.31V4.29Z"/></symbol><symbol id="icon-Webedia" viewBox="0 0 960 161.19"><g id="Calque_2" data-name="Calque 2"><path class="cls-1" d="M231.71 130.84c9.24 0 17.14-3.61 21.65-8.57l27.07 15.56c-11.05 15.34-27.75 23.24-49.18 23.24-38.57 0-62.48-25.94-62.48-59.56S193.13 42 228.77 42c32.94 0 57.3 25.49 57.3 59.55a65.79 65.79 0 0 1-1.35 13.54h-80.08c4.28 11.69 14.66 15.75 27.07 15.75Zm20.75-41.06C248.85 76.7 238.7 72 228.55 72c-12.86 0-21.43 6.32-24.59 17.82Zm162.76 11.73c0 33.62-24.36 59.56-53.92 59.56-15.11 0-26.16-5.19-33.61-13.76v10.6h-33.83V0h33.83v55.72C335.14 47.15 346.19 42 361.3 42c29.56 0 53.92 25.9 53.92 59.51Zm-33.84 0c0-16.92-11.28-27.51-26.84-27.51s-26.85 10.6-26.85 27.52S339 129 354.54 129s26.84-10.57 26.84-27.49Zm100.67 29.33c9.25 0 17.14-3.61 21.65-8.57l27.07 15.56c-11 15.34-27.74 23.24-49.17 23.24-38.58 0-62.49-25.94-62.49-59.56S443.47 42 479.11 42c32.94 0 57.3 25.49 57.3 59.55a65.79 65.79 0 0 1-1.35 13.54H455c4.26 11.69 14.64 15.75 27.05 15.75Zm20.75-41.06C499.19 76.7 489 72 478.89 72c-12.89 0-21.43 6.28-24.59 17.78ZM661.67 0v157.91h-33.84v-10.6c-7.44 8.57-18.5 13.76-33.61 13.76-29.55 0-53.91-25.94-53.91-59.56S564.67 42 594.22 42c15.11 0 26.17 5.19 33.61 13.76V0Zm-33.84 101.51C627.83 84.59 616.55 74 601 74s-26.85 10.6-26.85 27.52S585.42 129 601 129s26.83-10.57 26.83-27.49Zm45.55-56.39h33.83v112.79h-33.83Zm163 0v112.79h-33.84v-10.6c-7.44 8.57-18.49 13.76-33.61 13.76-29.55 0-53.91-25.94-53.91-59.56S739.38 42 768.93 42c15.12 0 26.17 5.19 33.61 13.76V45.12Zm-33.84 56.39c0-16.92-11.28-27.51-26.84-27.51s-26.84 10.6-26.84 27.52S760.13 129 775.7 129s26.84-10.57 26.84-27.49ZM139.65 45.12l-17.46 56.39-17.46-56.39H69.82l-17.45 56.39-17.46-56.39H0l34.91 112.79h34.91l17.46-56.4 17.45 56.4h34.92l34.91-112.79h-34.91zm550.95-9.93A17.21 17.21 0 0 1 677.89 30a17.42 17.42 0 0 1-5.19-12.78 16.39 16.39 0 0 1 5.19-12.07A17.39 17.39 0 0 1 690.6 0a16.58 16.58 0 0 1 12.2 5.12 16.56 16.56 0 0 1 5.09 12.07A17.61 17.61 0 0 1 702.8 30a16.42 16.42 0 0 1-12.2 5.19Zm231.21 9.93L886.9 157.91h-34.91L886.9 45.12h34.91zm19.43 116.07a18.69 18.69 0 0 1-13.8-5.66 18.93 18.93 0 0 1-5.63-13.87 17.81 17.81 0 0 1 5.63-13.1 18.91 18.91 0 0 1 13.8-5.55A18.9 18.9 0 0 1 960 141.66a19.11 19.11 0 0 1-5.52 13.87 17.81 17.81 0 0 1-13.24 5.66Z" id="Calque_1-2" data-name="Calque 1"/></g></symbol><symbol id="icon-youtube-footer" viewBox="0 0 14 10"><path fill-rule="evenodd" clip-rule="evenodd" d="M12 .875c.552.15.985.596 1.133 1.162C13.4 3.062 13.4 5.2 13.4 5.2s0 2.138-.268 3.163a1.625 1.625 0 0 1-1.131 1.163C11.003 9.8 7 9.8 7 9.8s-4.003 0-5-.274A1.625 1.625 0 0 1 .866 8.363C.6 7.34.6 5.2.6 5.2s0-2.138.267-3.163A1.623 1.623 0 0 1 2 .875C2.997.6 7 .6 7 .6s4.003 0 5 .275ZM5.8 3.4v4l3.2-2-3.2-2Z"/></symbol><symbol shape-rendering="geometricPrecision" text-rendering="geometricPrecision" image-rendering="optimizeQuality" fill-rule="evenodd" clip-rule="evenodd" id="icon-youtube-partner" viewBox="0 0 333333 333333"><path d="M329930 100020s-3254-22976-13269-33065c-12691-13269-26901-13354-33397-14124-46609-3396-116614-3396-116614-3396h-122s-69973 0-116608 3396c-6522 793-20712 848-33397 14124C6501 77044 3316 100020 3316 100020S-1 126982-1 154001v25265c0 26962 3315 53979 3315 53979s3254 22976 13207 33082c12685 13269 29356 12838 36798 14254 26685 2547 113354 3315 113354 3315s70065-124 116675-3457c6522-770 20706-848 33397-14124 10021-10089 13269-33090 13269-33090s3319-26962 3319-53979v-25263c-67-26962-3384-53979-3384-53979l-18 18-2-2zM132123 209917v-93681l90046 46997-90046 46684z"/></symbol></svg>