<svg width="100" height="75" viewBox="0 0 100 75" fill="none" xmlns="http://www.w3.org/2000/svg">
<path d="M99.9992 3.7137C100.007 2.6199 99.3898 1.6239 98.4133 1.1356C97.4094 0.639512 96.2102 0.760602 95.3235 1.44419C92.8352 3.31919 89.7805 4.28009 86.6673 4.16689C84.304 4.04189 81.9642 4.68642 79.9993 5.99889C78.0345 4.68639 75.6946 4.04189 73.3313 4.16689C70.2102 4.28017 67.1477 3.31923 64.6555 1.43639C63.7727 0.760612 62.5813 0.647332 61.5852 1.14342C60.6086 1.62389 59.9954 2.62392 59.9993 3.71372V5.83092C60.0071 12.2723 65.2259 17.4909 71.6673 17.4989H74.8079C73.5345 28.5339 65.4446 32.4989 44.9989 32.4989H4.8619C3.483 32.5028 2.1705 33.0849 1.2447 34.1083C0.334538 35.1122 -0.106902 36.4521 0.021998 37.7997C0.377468 41.3856 1.2681 44.9013 2.6665 48.2257C5.4634 54.9327 10.186 60.6597 16.2365 64.6827C22.2873 68.7061 29.3965 70.8468 36.6665 70.8311H41.4712C43.3814 72.1358 45.4478 73.1944 47.6235 73.9873C47.9594 74.1045 48.311 74.167 48.6665 74.167C49.5415 74.1592 50.3735 73.7764 50.9399 73.1084C51.5102 72.4404 51.7602 71.5615 51.6274 70.6943C72.5064 68.917 84.5884 49.6903 84.9864 17.4993H88.3302C94.7716 17.4915 99.9902 12.2727 99.9982 5.83131L99.9992 3.7137ZM8.3042 51.8547C15.6987 53.9719 23.3592 55.0188 31.0502 54.9641C31.8119 54.9641 32.6244 54.925 33.4135 54.9055C33.3627 55.2688 33.3354 55.6321 33.3315 55.9993C33.2729 60.2415 34.8198 64.3509 37.6674 67.4993H36.6674C25.1474 67.5188 14.4332 61.6091 8.3042 51.8547ZM36.6672 55.9992C36.675 53.1398 38.9914 50.8312 41.8508 50.8312C42.0344 50.8312 42.218 50.8429 42.4016 50.8625C45.1086 51.2531 47.1008 53.5969 47.0461 56.3313C47.0539 61.1321 47.4523 65.9211 48.2375 70.6553C43.6867 68.9053 36.6672 64.7763 36.6672 55.9992ZM51.1202 67.3742H51.1163C50.6358 63.7062 50.3897 60.0148 50.3819 56.3152C50.3702 55.3699 50.2139 54.4324 49.9171 53.534C63.5771 51.7176 75.2881 42.878 80.7801 30.237C78.5848 47.194 71.4793 65.807 51.1161 67.378L51.1202 67.3742ZM96.6672 5.8312C96.6594 10.4328 92.9328 14.1593 88.3313 14.1671H83.3313C82.4758 14.171 81.7649 14.8273 81.6946 15.6827H81.6712C81.554 16.96 78.4368 46.6237 48.2022 50.4207C46.8194 48.7957 44.8624 47.7684 42.7374 47.5457C40.3272 47.3035 37.9288 48.0926 36.1358 49.7137C35.5381 50.2567 35.0264 50.8778 34.6085 51.5653C24.921 52.1005 15.2175 50.7567 6.04246 47.6005C5.9409 47.3739 5.82762 47.1591 5.73387 46.9325C4.46437 43.9169 3.65967 40.7255 3.33937 37.4637C3.30031 37.0536 3.43703 36.6473 3.71437 36.3426C4.00734 36.0184 4.42531 35.8309 4.86277 35.8309H44.9998C64.9258 35.8309 77.4448 32.4989 78.2808 15.9129V15.9168C78.3042 15.4598 78.1402 15.0145 77.8237 14.6824C77.5073 14.3504 77.0698 14.1629 76.6128 14.1629H71.6675C67.0659 14.159 63.3394 10.4324 63.3316 5.83089V4.60039C66.2808 6.58869 69.7769 7.60429 73.3316 7.49879C75.316 7.27223 77.2925 7.95191 78.7183 9.35039C79.0465 9.71367 79.5113 9.9207 79.9995 9.9207C80.4878 9.9207 80.9527 9.71367 81.2807 9.35039C82.7065 7.95199 84.683 7.27229 86.6674 7.49879C90.2221 7.60817 93.7182 6.59254 96.6674 4.60039L96.6672 5.8312Z" fill="#274C5B"/>
<path d="M28.3312 39.1667C26.3117 39.1667 24.4874 40.3855 23.714 42.2526C22.9405 44.1198 23.3663 46.2721 24.796 47.7018C26.2256 49.1315 28.378 49.5573 30.2452 48.7838C32.1124 48.0104 33.3311 46.1861 33.3311 44.1666C33.3311 41.4049 31.0929 39.1667 28.3312 39.1667ZM28.3312 45.8308C27.6593 45.8308 27.05 45.4246 26.7921 44.8035C26.5342 44.1824 26.6788 43.4637 27.1553 42.9871C27.6319 42.5106 28.3467 42.366 28.9717 42.6238C29.5928 42.8856 29.999 43.491 29.999 44.1668C29.999 44.6082 29.8233 45.0301 29.5108 45.3426C29.1983 45.6552 28.7726 45.8308 28.3312 45.8308Z" fill="#274C5B"/>
</svg>
