<svg width="20" height="19" viewBox="0 0 20 19" fill="none" xmlns="http://www.w3.org/2000/svg">
<path d="M14.1585 1.88148C15.2231 1.88454 16.2431 2.29312 16.9958 3.01799C17.7486 3.74286 18.1729 4.72511 18.1761 5.75022V13.4869C18.1729 14.512 17.7486 15.4942 16.9958 16.2191C16.2431 16.944 15.2231 17.3526 14.1585 17.3556H6.1243C5.05976 17.3526 4.03973 16.944 3.28698 16.2191C2.53423 15.4942 2.10994 14.512 2.10676 13.4869V5.75022C2.10994 4.72511 2.53423 3.74286 3.28698 3.01799C4.03973 2.29312 5.05976 1.88454 6.1243 1.88148H14.1585ZM14.1585 0.334229H6.1243C3.03087 0.334229 0.5 2.77136 0.5 5.75022V13.4869C0.5 16.4657 3.03087 18.9029 6.1243 18.9029H14.1585C17.252 18.9029 19.7828 16.4657 19.7828 13.4869V5.75022C19.7828 2.77136 17.252 0.334229 14.1585 0.334229Z" fill="#274C5B"/>
<path d="M15.3638 5.75101C15.1254 5.75101 14.8924 5.68295 14.6942 5.55543C14.496 5.42791 14.3416 5.24665 14.2504 5.03459C14.1591 4.82253 14.1353 4.58919 14.1818 4.36406C14.2283 4.13894 14.3431 3.93215 14.5116 3.76985C14.6802 3.60754 14.8949 3.49701 15.1287 3.45223C15.3625 3.40745 15.6048 3.43043 15.825 3.51827C16.0452 3.60611 16.2334 3.75486 16.3659 3.94571C16.4983 4.13656 16.569 4.36094 16.569 4.59047C16.5693 4.74297 16.5384 4.89403 16.4779 5.03498C16.4175 5.17593 16.3287 5.304 16.2167 5.41183C16.1048 5.51966 15.9718 5.60513 15.8254 5.66334C15.679 5.72155 15.5222 5.75134 15.3638 5.75101ZM10.1415 6.52443C10.7772 6.52443 11.3986 6.70594 11.9271 7.04602C12.4556 7.38609 12.8676 7.86945 13.1108 8.43497C13.3541 9.00049 13.4177 9.62278 13.2937 10.2231C13.1697 10.8235 12.8636 11.3749 12.4141 11.8078C11.9646 12.2406 11.392 12.5354 10.7685 12.6548C10.1451 12.7742 9.49886 12.7129 8.91158 12.4787C8.32431 12.2444 7.82236 11.8477 7.46921 11.3388C7.11606 10.8298 6.92756 10.2315 6.92756 9.61934C6.92847 8.79879 7.26738 8.0121 7.86991 7.43188C8.47245 6.85166 9.2894 6.52531 10.1415 6.52443ZM10.1415 4.97718C9.18806 4.97718 8.25603 5.24944 7.46327 5.75953C6.67051 6.26961 6.05263 6.99462 5.68776 7.84286C5.32289 8.69111 5.22742 9.62449 5.41343 10.525C5.59944 11.4255 6.05857 12.2526 6.73275 12.9018C7.40694 13.5511 8.26591 13.9932 9.20104 14.1723C10.1362 14.3514 11.1054 14.2595 11.9863 13.9081C12.8672 13.5568 13.6201 12.9618 14.1498 12.1984C14.6795 11.435 14.9622 10.5375 14.9622 9.61934C14.9622 8.38817 14.4543 7.20741 13.5503 6.33684C12.6462 5.46627 11.42 4.97718 10.1415 4.97718Z" fill="#274C5B"/>
</svg>
