<svg width="45" height="45" viewBox="0 0 45 45" fill="none" xmlns="http://www.w3.org/2000/svg">
<path d="M41.7203 34.1273C40.1551 32.5504 36.3645 30.2492 34.5254 29.3218C32.1304 28.1155 31.9333 28.017 30.0508 29.4154C28.7951 30.3487 27.9603 31.1825 26.4908 30.8691C25.0212 30.5557 21.8279 28.7886 19.0317 26.0015C16.2356 23.2144 14.3659 19.9287 14.0515 18.4642C13.7371 16.9997 14.5847 16.1748 15.5092 14.9162C16.8122 13.1423 16.7136 12.8466 15.5999 10.4518C14.7316 8.58912 12.3632 4.83423 10.7803 3.27709C9.08703 1.60463 9.08704 1.90029 7.99598 2.35364C7.10772 2.72734 6.25556 3.1816 5.45017 3.71072C3.87321 4.75834 2.99799 5.62857 2.38593 6.93638C1.77388 8.24418 1.49889 11.3102 4.65972 17.0519C7.82054 22.7936 10.0381 25.7295 14.6281 30.3064C19.218 34.8832 22.7475 37.3441 27.9071 40.2376C34.2898 43.8121 36.7381 43.1154 38.0499 42.5043C39.3617 41.8933 40.236 41.026 41.2856 39.4492C41.8162 38.6452 42.2715 37.794 42.6458 36.9065C43.1001 35.8194 43.3958 35.8194 41.7203 34.1273Z" stroke="#0084B8" stroke-width="3" stroke-miterlimit="10"/>
</svg>
