<svg width="21" height="20" viewBox="0 0 21 20" fill="none" xmlns="http://www.w3.org/2000/svg">
<path d="M10.2966 0.334229C4.88662 0.334229 0.5 4.71889 0.5 10.1265C0.5 14.1352 2.91417 17.58 6.36486 19.0969C6.33862 18.4149 6.36049 17.5931 6.53543 16.8499C6.72349 16.0543 7.795 11.5123 7.795 11.5123C7.795 11.5123 7.4801 10.8871 7.4801 9.96475C7.4801 8.51339 8.31982 7.42925 9.36946 7.42925C10.2617 7.42925 10.6903 8.0981 10.6903 8.89809C10.6903 9.79426 10.1173 11.132 9.8243 12.3735C9.57938 13.4139 10.3447 14.2576 11.3725 14.2576C13.2269 14.2576 14.4777 11.8751 14.4777 9.05109C14.4777 6.90466 13.0301 5.30031 10.4016 5.30031C7.432 5.30031 5.57763 7.51668 5.57763 9.99098C5.57763 10.8434 5.8313 11.4467 6.22491 11.9101C6.40422 12.1243 6.43046 12.2117 6.36486 12.4565C6.31675 12.6358 6.21179 13.0685 6.16368 13.2434C6.09808 13.4926 5.8969 13.58 5.67385 13.4882C4.30494 12.9287 3.66641 11.4336 3.66641 9.74617C3.66641 6.96587 6.01498 3.63038 10.6684 3.63038C14.4077 3.63038 16.87 6.33636 16.87 9.23907C16.87 13.0817 14.7314 15.9494 11.5824 15.9494C10.5241 15.9494 9.53128 15.3767 9.19014 14.7297C9.19014 14.7297 8.62159 16.9855 8.49913 17.4226C8.29357 18.1789 7.88684 18.9308 7.51509 19.521C8.41686 19.7869 9.35208 19.9223 10.2923 19.9231C15.7023 19.9231 20.0889 15.5385 20.0889 10.1309C20.0889 4.72326 15.7067 0.334229 10.2966 0.334229Z" fill="#274C5B"/>
</svg>
