<svg width="88" height="93" viewBox="0 0 88 93" fill="none" xmlns="http://www.w3.org/2000/svg">
<path d="M34.9966 60.0877V32.7438C34.9971 32.4017 35.0845 32.066 35.2496 31.772C35.4147 31.4779 35.6515 31.2363 35.935 31.0725C36.2186 30.9087 36.5385 30.8286 36.8613 30.8408C37.1841 30.853 37.4978 30.9569 37.7697 31.1416L57.8514 44.8097C58.1057 44.9823 58.3149 45.2198 58.4598 45.5005C58.6047 45.7811 58.6807 46.0958 58.6807 46.4157C58.6807 46.7356 58.6047 47.0503 58.4598 47.331C58.3149 47.6116 58.1057 47.8491 57.8514 48.0217L37.7697 61.6936C37.4978 61.8784 37.1841 61.9823 36.8613 61.9944C36.5385 62.0066 36.2186 61.9266 35.935 61.7628C35.6515 61.5989 35.4147 61.3573 35.2496 61.0633C35.0845 60.7693 34.9971 60.4336 34.9966 60.0915V60.0877Z" fill="white"/>
<path d="M4.38428 46.4157C4.38428 23.2413 22.1214 4.45386 44.0002 4.45386C65.879 4.45386 83.6162 23.2413 83.6162 46.4157C83.6162 69.5901 65.879 88.3776 44.0002 88.3776C22.1214 88.3776 4.38428 69.5901 4.38428 46.4157ZM44.0002 10.1759C34.9262 10.1759 26.2238 13.994 19.8074 20.7903C13.3911 27.5866 9.78645 36.8043 9.78645 46.4157C9.78645 56.0271 13.3911 65.2448 19.8074 72.0411C26.2238 78.8374 34.9262 82.6555 44.0002 82.6555C53.0743 82.6555 61.7767 78.8374 68.193 72.0411C74.6093 65.2448 78.214 56.0271 78.214 46.4157C78.214 36.8043 74.6093 27.5866 68.193 20.7903C61.7767 13.994 53.0743 10.1759 44.0002 10.1759Z" fill="white"/>
</svg>
