<svg width="22" height="17" viewBox="0 0 22 17" fill="none" xmlns="http://www.w3.org/2000/svg">
<path d="M21.1602 2.29265C20.3852 2.62939 19.5652 2.85124 18.7261 2.95119C19.6079 2.43485 20.2711 1.61455 20.5912 0.644138C19.7575 1.13163 18.8469 1.47367 17.8984 1.65563C17.4991 1.23705 17.0187 0.904071 16.4866 0.676913C15.9546 0.449754 15.3818 0.333167 14.8033 0.334236C12.4609 0.334236 10.5654 2.20226 10.5654 4.50501C10.5637 4.82531 10.6004 5.14466 10.6747 5.45624C8.99507 5.37749 7.35036 4.94902 5.84581 4.19823C4.34126 3.44743 3.00999 2.39085 1.93717 1.09608C1.5608 1.73057 1.36176 2.4545 1.36084 3.19223C1.36084 4.63844 2.11537 5.91679 3.25469 6.66572C2.57967 6.6497 1.91849 6.47104 1.32727 6.14491V6.19656C1.32727 8.21953 2.7907 9.90248 4.72759 10.2856C4.36336 10.3826 3.98803 10.4318 3.61108 10.4319C3.34361 10.4324 3.07674 10.4064 2.81437 10.3544C3.35283 12.0115 4.91999 13.2167 6.77639 13.2511C5.26793 14.4137 3.41593 15.042 1.51149 15.0374C1.17344 15.0369 0.835713 15.0168 0.5 14.9771C2.4374 16.2143 4.68947 16.8686 6.98815 16.8624C14.7943 16.8624 19.0589 10.5051 19.0589 4.99138C19.0589 4.81061 19.0541 4.62983 19.0455 4.45336C19.8733 3.86457 20.5893 3.13288 21.1602 2.29265Z" fill="#274C5B"/>
</svg>
