<svg width="150" height="150" viewBox="0 0 150 150" fill="none" xmlns="http://www.w3.org/2000/svg">
<path d="M77.8284 80.8418C76.2663 82.4039 73.7336 82.4039 72.1716 80.8418L46.7158 55.3859C45.1537 53.8238 45.1538 51.2912 46.7159 49.7291C48.278 48.167 50.8106 48.167 52.3727 49.7291L75 72.3565L97.6276 49.7291C99.1897 48.167 101.722 48.167 103.284 49.7291C104.846 51.2912 104.846 53.8238 103.284 55.3859L77.8284 80.8418ZM79 77L79 78.0133L71 78.0133L71 77L79 77Z" fill="#CFEEFF"/>
<path d="M77.8284 101.842C76.2663 103.404 73.7336 103.404 72.1716 101.842L46.7158 76.3859C45.1537 74.8238 45.1538 72.2912 46.7159 70.7291C48.278 69.167 50.8106 69.167 52.3727 70.7291L75 93.3565L97.6276 70.7291C99.1897 69.167 101.722 69.167 103.284 70.7291C104.846 72.2912 104.846 74.8238 103.284 76.3859L77.8284 101.842ZM79 98L79 99.0133L71 99.0133L71 98L79 98Z" fill="#CFEEFF"/>
</svg>
