<svg width="32" height="32" viewBox="0 0 32 32" fill="none" xmlns="http://www.w3.org/2000/svg">
<path fill-rule="evenodd" clip-rule="evenodd" d="M15.9523 0C7.1311 0 0 7.26073 0 16.2432C0 23.4234 4.56914 29.5013 10.9078 31.6525C11.7002 31.8142 11.9905 31.303 11.9905 30.8729C11.9905 30.4964 11.9644 29.2056 11.9644 27.8607C7.52686 28.829 6.60278 25.9244 6.60278 25.9244C5.88963 24.0419 4.83298 23.5581 4.83298 23.5581C3.38057 22.563 4.93878 22.563 4.93878 22.563C6.54988 22.6706 7.39527 24.2304 7.39527 24.2304C8.82123 26.7043 11.119 26.0053 12.0434 25.5749C12.1753 24.5261 12.5982 23.8 13.0472 23.3967C9.50792 23.0201 5.78416 21.6218 5.78416 15.3825C5.78416 13.6076 6.41763 12.1554 7.42139 11.0261C7.26302 10.6228 6.70825 8.95512 7.58008 6.7231C7.58008 6.7231 8.92702 6.29274 11.9641 8.39043C13.2644 8.03487 14.6053 7.854 15.9523 7.85248C17.2993 7.85248 18.6723 8.04092 19.9402 8.39043C22.9776 6.29274 24.3246 6.7231 24.3246 6.7231C25.1964 8.95512 24.6413 10.6228 24.4829 11.0261C25.5131 12.1554 26.1205 13.6076 26.1205 15.3825C26.1205 21.6218 22.3967 22.9931 18.831 23.3967C19.4122 23.9076 19.9138 24.8756 19.9138 26.4086C19.9138 28.5868 19.8877 30.335 19.8877 30.8726C19.8877 31.303 20.1783 31.8142 20.9705 31.6528C27.3091 29.501 31.8782 23.4234 31.8782 16.2432C31.9043 7.26073 24.7471 0 15.9523 0Z" fill="#CFEEFF"/>
</svg>
