<svg width="50" height="50" viewBox="0 0 50 50" fill="none" xmlns="http://www.w3.org/2000/svg">
<path d="M46.7252 2.33832C46.5289 2.12228 46.2467 2 45.9523 2H5.04774C4.75329 2 4.4711 2.12228 4.2748 2.33832C4.07441 2.55435 3.97626 2.84375 4.00488 3.13723L7.68964 44.2772C7.72645 44.7092 8.02908 45.0679 8.44623 45.1902L25.2096 49.9592C25.2996 49.9878 25.3978 50 25.4959 50C25.5941 50 25.6881 49.9878 25.7822 49.9592L42.5579 45.1902C42.975 45.0679 43.2735 44.7092 43.3144 44.2772L46.9951 3.13723C47.0237 2.84375 46.9256 2.55435 46.7252 2.33832ZM37.9039 16.5231H18.2082L18.6785 21.8342H37.4295L36.0226 37.5312L25.4918 40.7024L25.3896 40.6698L14.9815 37.5272L14.413 31.1318H19.5128L19.7336 33.6141L25.5532 34.8288L31.2664 33.6141L31.8757 26.8967H14.0327L12.6463 11.4484H38.3578L37.9039 16.5231Z" fill="#CFEEFF"/>
</svg>
