<svg width="50" height="50" viewBox="0 0 50 50" fill="none" xmlns="http://www.w3.org/2000/svg">
<path d="M46.7194 0.353261C46.5158 0.128261 46.2298 0 45.9287 0H4.07129C3.77026 0 3.48422 0.128261 3.28068 0.353261C3.07713 0.578261 2.9775 0.880435 3.00428 1.1837L6.77522 44.0391C6.81486 44.487 7.12232 44.8641 7.5487 44.988L24.7001 49.9587C24.7954 49.9859 24.895 50 24.9936 50C25.0921 50 25.1918 49.9859 25.2871 49.9587L42.4535 44.988C42.8798 44.8641 43.1873 44.487 43.2269 44.0391L46.9958 1.1837C47.0225 0.880435 46.9218 0.578261 46.7194 0.353261ZM11.0732 29.3522L18.5723 31.463V9.78261H22.8574V38.0435L11.0732 34.7272V29.3522ZM38.9846 21.7391L37.8555 35.0543L27.1426 38.0435V33.0424L34.3738 31.0261L34.6416 26.95L27.1426 28.2609V9.78261H39.9981L39.6285 14.1304H31.4278V22.8261L38.9846 21.7391Z" fill="#CFEEFF"/>
</svg>
