<svg width="32" height="33" viewBox="0 0 32 33" fill="none" xmlns="http://www.w3.org/2000/svg">
<path d="M28.1905 0.841797H3.80952C1.70667 0.841797 0 2.54846 0 4.65132V29.0323C0 31.1351 1.70667 32.8418 3.80952 32.8418H28.1905C30.2933 32.8418 32 31.1351 32 29.0323V4.65132C32 2.54846 30.2933 0.841797 28.1905 0.841797ZM9.90476 13.0323V27.5085H5.33333V13.0323H9.90476ZM5.33333 8.81894C5.33333 7.75227 6.24762 6.93704 7.61905 6.93704C8.99048 6.93704 9.85143 7.75227 9.90476 8.81894C9.90476 9.88561 9.05143 10.7466 7.61905 10.7466C6.24762 10.7466 5.33333 9.88561 5.33333 8.81894ZM26.6667 27.5085H22.0952C22.0952 27.5085 22.0952 20.4532 22.0952 19.8894C22.0952 18.3656 21.3333 16.8418 19.4286 16.8113H19.3676C17.5238 16.8113 16.7619 18.3808 16.7619 19.8894C16.7619 20.5828 16.7619 27.5085 16.7619 27.5085H12.1905V13.0323H16.7619V14.9827C16.7619 14.9827 18.2324 13.0323 21.1886 13.0323C24.2133 13.0323 26.6667 15.1123 26.6667 19.3256V27.5085Z" fill="#CFEEFF"/>
</svg>
